<?xml version="1.0" standalone="no"?><!DOCTYPE svg PUBLIC "-//W3C//DTD SVG 1.1//EN" "http://www.w3.org/Graphics/SVG/1.1/DTD/svg11.dtd"><svg height="238" node-id="1" sillyvg="true" template-height="238" template-width="256" version="1.1" viewBox="0 0 256 238" width="256" xmlns="http://www.w3.org/2000/svg" xmlns:xlink="http://www.w3.org/1999/xlink"><defs node-id="449"></defs><g node-id="903"><g node-id="911"><g node-id="942"><g node-id="955"><path d="M 247.28 108.34 C 247.28 69.17 215.45 37.42 176.20 37.42 C 175.59 37.42 174.98 37.45 174.38 37.47 C 161.98 16.69 139.26 2.76 113.26 2.76 C 74.00 2.76 42.17 34.51 42.17 73.68 C 42.17 74.19 42.20 74.69 42.21 75.19 C 42.21 96.40 6.25 110.42 6.25 136.84 C 6.25 176.00 38.08 207.75 77.34 207.75 C 79.57 207.75 81.78 207.63 83.96 207.43 C 112.75 207.43 116.72 233.23 138.80 233.23 C 175.09 233.23 205.00 206.10 209.33 171.07 C 219.32 146.62 247.28 135.56 247.28 108.34 Z" fill="#bddbff" fill-opacity="0.39" fill-rule="nonzero" group-id="1,9,40,53" node-id="455" stroke="none" target-height="230.468" target-width="241.02701" target-x="6.254" target-y="2.761"></path></g></g></g><g node-id="912"><g node-id="943"><g node-id="956"><path d="M 11.73 2.24 L 65.53 2.24 L 65.53 44.11 L 11.73 44.11 Z" fill="#ffffff" fill-rule="nonzero" group-id="1,10,41,54" node-id="465" stroke="none" target-height="41.875" target-width="53.801003" target-x="11.726" target-y="2.238"></path><path d="M 65.53 45.61 L 11.73 45.61 C 10.90 45.61 10.23 44.94 10.23 44.11 L 10.23 2.24 C 10.23 1.41 10.90 0.74 11.73 0.74 L 65.53 0.74 C 66.36 0.74 67.03 1.41 67.03 2.24 L 67.03 44.11 C 67.03 44.94 66.36 45.61 65.53 45.61 Z M 13.23 42.61 L 64.03 42.61 L 64.03 3.74 L 13.23 3.74 L 13.23 42.61 Z" fill="#ccccde" fill-rule="nonzero" group-id="1,10,41,54" node-id="467" stroke="none" target-height="44.875" target-width="56.801003" target-x="10.226" target-y="0.738"></path></g><g node-id="957"><path d="M 16.71 6.81 L 59.98 6.81 L 59.98 39.24 L 16.71 39.24 Z" fill="#d6f1ff" fill-rule="nonzero" group-id="1,10,41,55" node-id="471" stroke="none" target-height="32.427002" target-width="43.271004" target-x="16.706" target-y="6.809"></path></g><g node-id="958"><g node-id="960"><path d="M 16.71 20.07 C 16.71 20.07 18.39 17.70 22.62 17.70 C 26.85 17.70 23.98 14.82 29.05 14.82 C 34.12 14.82 37.33 12.29 43.42 14.65 C 49.50 17.02 59.98 17.14 59.98 17.14 L 60.12 25.63 L 16.71 28.01 L 16.71 20.07 L 16.71 20.07 Z" fill="#000000" fill-opacity="0.0376" fill-rule="nonzero" group-id="1,10,41,56,58" node-id="477" stroke="none" target-height="15.719999" target-width="43.415" target-x="16.706" target-y="12.288"></path></g><path d="M 37.27 21.45 L 16.71 33.48 L 16.71 39.13 L 60.12 39.13 Z" fill="#ffe5b0" fill-opacity="0.47" fill-rule="nonzero" group-id="1,10,41,56" node-id="480" stroke="none" target-height="17.678001" target-width="43.413002" target-x="16.706" target-y="21.451"></path><path d="M 16.71 26.10 C 16.71 26.10 23.06 22.44 27.04 22.80 C 31.02 23.17 24.47 28.94 24.47 28.94 L 16.71 33.48 L 16.71 26.10 Z" fill="#ffe5b0" fill-opacity="0.47" fill-rule="nonzero" group-id="1,10,41,56" node-id="482" stroke="none" target-height="11.046001" target-width="14.316" target-x="16.706" target-y="22.438"></path><path d="M 27.04 22.80 C 27.04 22.80 28.42 23.41 25.46 24.56 C 22.50 25.70 21.53 30.74 26.35 28.30 C 31.18 25.86 37.27 21.45 37.27 21.45 C 37.27 21.45 32.97 24.15 27.04 22.80 Z" fill="#f2d9a6" fill-opacity="0.47" fill-rule="nonzero" group-id="1,10,41,56" node-id="484" stroke="none" target-height="9.285" target-width="15.741001" target-x="21.527" target-y="21.452"></path><path d="M 43.42 21.57 C 43.42 21.57 48.88 18.19 59.93 20.40 L 60.12 23.72 L 43.42 21.57 Z" fill="#ffe5b0" fill-opacity="0.47" fill-rule="nonzero" group-id="1,10,41,56" node-id="486" stroke="none" target-height="5.528" target-width="16.702" target-x="43.416" target-y="18.189"></path><path d="M 26.36 28.30 C 28.38 27.27 30.63 25.90 32.56 24.65 C 28.33 24.25 27.67 22.93 27.67 22.93 L 27.67 22.93 C 27.46 22.89 27.25 22.85 27.04 22.80 C 27.04 22.80 28.42 23.41 25.46 24.56 C 22.50 25.70 21.53 30.74 26.36 28.30 Z" fill="#d6c093" fill-opacity="0.47" fill-rule="nonzero" group-id="1,10,41,56" node-id="488" stroke="none" target-height="7.934" target-width="11.025999" target-x="21.531" target-y="22.804"></path><path d="M 45.52 20.68 C 45.52 20.68 53.64 20.70 60.02 22.05 L 60.12 23.72 L 45.52 20.68 Z" fill="#d6c093" fill-opacity="0.19739999" fill-rule="nonzero" group-id="1,10,41,56,59" node-id="492" stroke="none" target-height="3.0349998" target-width="14.605" target-x="45.518" target-y="20.684"></path><path d="M 41.79 20.36 C 41.79 20.36 34.35 19.75 38.06 24.48 C 41.79 29.21 60.12 39.13 60.12 39.13 L 60.12 23.72 C 60.12 23.72 47.02 20.36 41.79 20.36 Z" fill="#d6c093" fill-opacity="0.47" fill-rule="nonzero" group-id="1,10,41,56,60" node-id="497" stroke="none" target-height="19.377" target-width="25.772" target-x="34.347" target-y="19.752"></path><path d="M 16.71 34.55 C 16.71 34.55 28.22 32.16 33.62 24.73 C 33.62 24.73 30.56 30.83 16.71 37.09 L 16.71 34.55 Z" fill="#d6c093" fill-opacity="0.1269" fill-rule="nonzero" group-id="1,10,41,56,61" node-id="502" stroke="none" target-height="12.353998" target-width="16.913" target-x="16.706" target-y="24.731"></path><path d="M 38.89 25.39 C 38.89 25.39 49.33 33.74 51.36 39.13 L 60.12 39.13 L 38.89 25.39 Z" fill="#d6c093" fill-opacity="0.1175" fill-rule="nonzero" group-id="1,10,41,56,62" node-id="507" stroke="none" target-height="13.744001" target-width="21.236" target-x="38.887" target-y="25.385"></path><path d="M 40.44 25.77 C 36.09 20.32 44.79 21.03 44.79 21.03 C 45.73 21.03 46.73 21.03 47.76 21.03 C 45.45 20.64 43.30 20.36 41.79 20.36 C 41.79 20.36 34.35 19.75 38.07 24.48 C 39.72 26.58 44.23 29.69 48.75 32.51 C 45.38 30.31 42.12 27.87 40.44 25.77 Z M 59.81 23.64 L 59.81 38.93 C 59.81 38.93 59.38 38.71 58.65 38.32 C 59.57 38.83 60.12 39.13 60.12 39.13 L 60.12 23.72 C 60.12 23.72 60.01 23.69 59.81 23.64 Z" fill="#c7b289" fill-opacity="0.47" fill-rule="nonzero" group-id="1,10,41,56,63" node-id="512" stroke="none" target-height="19.375998" target-width="25.774002" target-x="34.35" target-y="19.752"></path><path d="M 26.47 24.56 C 27.59 24.12 28.09 23.77 28.28 23.50 C 27.80 23.18 27.68 22.93 27.68 22.93 C 27.68 22.93 27.67 22.93 27.67 22.93 C 27.47 22.89 27.26 22.85 27.05 22.80 C 27.05 22.80 28.42 23.41 25.46 24.56 C 22.89 25.55 21.82 29.49 24.76 28.89 C 23.17 28.43 24.26 25.41 26.47 24.56 Z" fill="#c7b289" fill-opacity="0.47" fill-rule="nonzero" group-id="1,10,41,56,64" node-id="517" stroke="none" target-height="6.6830006" target-width="6.606001" target-x="21.817" target-y="22.805"></path></g></g><g node-id="944"><path d="M 4.80 44.11 L 160.87 44.11 L 160.87 56.98 L 4.80 56.98 Z" fill="#ffffff" fill-rule="nonzero" group-id="1,10,42" node-id="524" stroke="none" target-height="12.868" target-width="156.063" target-x="4.804" target-y="44.113"></path><path d="M 162.37 58.48 L 3.30 58.48 L 3.30 42.61 L 162.37 42.61 L 162.37 58.48 Z M 6.30 55.48 L 159.37 55.48 L 159.37 45.61 L 6.30 45.61 L 6.30 55.48 Z" fill="#ccccde" fill-rule="nonzero" group-id="1,10,42" node-id="526" stroke="none" target-height="15.868" target-width="159.063" target-x="3.304" target-y="42.613"></path></g><g node-id="945"><path d="M 80.30 2.24 L 92.14 2.24 L 92.14 44.11 L 80.30 44.11 Z" fill="#f0f0ff" fill-rule="nonzero" group-id="1,10,43" node-id="531" stroke="none" target-height="41.875" target-width="11.832001" target-x="80.303" target-y="2.238"></path><path d="M 92.14 45.61 L 80.30 45.61 C 79.47 45.61 78.80 44.94 78.80 44.11 L 78.80 2.24 C 78.80 1.41 79.47 0.74 80.30 0.74 L 92.14 0.74 C 92.96 0.74 93.64 1.41 93.64 2.24 L 93.64 44.11 C 93.64 44.94 92.96 45.61 92.14 45.61 Z M 81.80 42.61 L 90.64 42.61 L 90.64 3.74 L 81.80 3.74 L 81.80 42.61 Z" fill="#ccccde" fill-rule="nonzero" group-id="1,10,43" node-id="533" stroke="none" target-height="44.875" target-width="14.832001" target-x="78.803" target-y="0.738"></path></g><g node-id="946"><path d="M 91.73 2.24 L 103.56 2.24 L 103.56 44.11 L 91.73 44.11 Z" fill="#bff4ff" fill-rule="nonzero" group-id="1,10,44" node-id="538" stroke="none" target-height="41.875" target-width="11.833" target-x="91.729" target-y="2.238"></path><path d="M 103.56 45.61 L 91.73 45.61 C 90.90 45.61 90.23 44.94 90.23 44.11 L 90.23 2.24 C 90.23 1.41 90.90 0.74 91.73 0.74 L 103.56 0.74 C 104.39 0.74 105.06 1.41 105.06 2.24 L 105.06 44.11 C 105.06 44.94 104.39 45.61 103.56 45.61 Z M 93.23 42.61 L 102.06 42.61 L 102.06 3.74 L 93.23 3.74 L 93.23 42.61 Z" fill="#ccccde" fill-rule="nonzero" group-id="1,10,44" node-id="540" stroke="none" target-height="44.875" target-width="14.833" target-x="90.229" target-y="0.738"></path></g><g node-id="947"><path d="M 103.56 2.24 L 115.39 2.24 L 115.39 44.11 L 103.56 44.11 Z" fill="#f4ffba" fill-rule="nonzero" group-id="1,10,45" node-id="545" stroke="none" target-height="41.875" target-width="11.832001" target-x="103.562" target-y="2.238"></path><path d="M 115.39 45.61 L 103.56 45.61 C 102.73 45.61 102.06 44.94 102.06 44.11 L 102.06 2.24 C 102.06 1.41 102.73 0.74 103.56 0.74 L 115.39 0.74 C 116.22 0.74 116.89 1.41 116.89 2.24 L 116.89 44.11 C 116.89 44.94 116.22 45.61 115.39 45.61 Z M 105.06 42.61 L 113.89 42.61 L 113.89 3.74 L 105.06 3.74 L 105.06 42.61 Z" fill="#ccccde" fill-rule="nonzero" group-id="1,10,45" node-id="547" stroke="none" target-height="44.875" target-width="14.832001" target-x="102.062" target-y="0.738"></path></g><g node-id="948"><g node-id="959"><path d="M 147.24 38.42 L 137.90 44.12 L 116.07 8.38 L 125.41 2.68 Z" fill="#ffdbdb" fill-rule="nonzero" group-id="1,10,46,57" node-id="554" stroke="none" target-height="41.444275" target-width="31.168762" target-x="116.070526" target-y="2.6793365"></path></g><path d="M 137.91 45.62 C 137.79 45.62 137.67 45.61 137.55 45.58 C 137.17 45.49 136.83 45.25 136.62 44.91 L 114.79 9.17 C 114.36 8.46 114.58 7.54 115.29 7.11 L 124.63 1.40 C 124.97 1.20 125.38 1.13 125.76 1.22 C 126.15 1.32 126.48 1.56 126.69 1.90 L 148.52 37.64 C 148.95 38.35 148.73 39.27 148.02 39.70 L 138.69 45.41 C 138.45 45.55 138.18 45.62 137.91 45.62 Z M 118.14 8.88 L 138.40 42.06 L 145.18 37.92 L 124.91 4.74 L 118.14 8.88 Z" fill="#ccccde" fill-rule="nonzero" group-id="1,10,46" node-id="557" stroke="none" target-height="44.494" target-width="34.592995" target-x="114.361" target-y="1.131"></path></g></g><g node-id="913"><path d="M 244.16 86.31 C 244.16 108.68 226.03 126.82 203.66 126.82 C 181.29 126.82 163.15 108.68 163.15 86.31 C 163.15 63.94 181.29 45.81 203.66 45.81 C 226.03 45.81 244.16 63.94 244.16 86.31 Z" fill="#e0ecff" fill-rule="nonzero" group-id="1,11" node-id="562" stroke="none" target-height="81.014" target-width="81.01401" target-x="163.15" target-y="45.806"></path><path d="M 237.54 86.27 C 237.54 104.95 222.39 120.10 203.70 120.10 C 185.01 120.10 169.87 104.95 169.87 86.27 C 169.87 67.58 185.01 52.43 203.70 52.43 C 222.39 52.43 237.54 67.58 237.54 86.27 Z" fill="#f2faff" fill-rule="nonzero" group-id="1,11" node-id="564" stroke="none" target-height="67.67" target-width="67.67" target-x="169.866" target-y="52.431"></path><path d="M 191.24 66.08 C 190.72 66.08 190.22 65.81 189.94 65.33 L 187.52 61.12 C 187.10 60.41 187.35 59.49 188.07 59.07 C 188.78 58.66 189.70 58.91 190.12 59.62 L 192.54 63.83 C 192.96 64.54 192.71 65.46 191.99 65.88 C 191.76 66.01 191.50 66.08 191.24 66.08 Z" fill="#ccccde" fill-rule="nonzero" group-id="1,11" node-id="566" stroke="none" target-height="7.416996" target-width="5.850998" target-x="187.104" target-y="58.659"></path><path d="M 182.09 75.22 C 181.83 75.22 181.58 75.16 181.34 75.02 L 177.14 72.60 C 176.43 72.19 176.18 71.27 176.59 70.55 C 177.01 69.83 177.93 69.59 178.64 70.00 L 182.84 72.42 C 183.56 72.84 183.80 73.76 183.39 74.47 C 183.11 74.95 182.61 75.22 182.09 75.22 Z" fill="#ccccde" fill-rule="nonzero" group-id="1,11" node-id="568" stroke="none" target-height="5.6360016" target-width="7.623993" target-x="176.179" target-y="69.588"></path><path d="M 177.89 102.65 C 177.38 102.65 176.87 102.38 176.59 101.90 C 176.18 101.18 176.42 100.27 177.14 99.85 L 181.34 97.43 C 182.06 97.01 182.97 97.26 183.39 97.98 C 183.80 98.69 183.56 99.61 182.84 100.03 L 178.64 102.45 C 178.41 102.59 178.15 102.65 177.89 102.65 Z" fill="#ccccde" fill-rule="nonzero" group-id="1,11" node-id="570" stroke="none" target-height="5.6380005" target-width="7.623993" target-x="176.179" target-y="97.013"></path><path d="M 188.82 113.58 C 188.56 113.58 188.30 113.51 188.07 113.38 C 187.35 112.96 187.10 112.05 187.52 111.33 L 189.94 107.13 C 190.36 106.41 191.28 106.16 191.99 106.58 C 192.71 106.99 192.96 107.91 192.54 108.63 L 190.12 112.83 C 189.84 113.31 189.33 113.58 188.82 113.58 Z" fill="#ccccde" fill-rule="nonzero" group-id="1,11" node-id="572" stroke="none" target-height="7.415001" target-width="5.850998" target-x="187.105" target-y="106.164"></path><path d="M 218.67 113.58 C 218.15 113.58 217.65 113.31 217.37 112.83 L 214.94 108.63 C 214.53 107.91 214.78 106.99 215.49 106.58 C 216.21 106.16 217.13 106.41 217.54 107.13 L 219.97 111.33 C 220.38 112.04 220.14 112.96 219.42 113.38 C 219.18 113.51 218.93 113.58 218.67 113.58 Z" fill="#ccccde" fill-rule="nonzero" group-id="1,11" node-id="574" stroke="none" target-height="7.413002" target-width="5.8519897" target-x="214.531" target-y="106.164"></path><path d="M 229.59 102.65 C 229.34 102.65 229.08 102.58 228.85 102.45 L 224.65 100.03 C 223.93 99.61 223.68 98.69 224.10 97.98 C 224.51 97.26 225.43 97.01 226.15 97.43 L 230.34 99.85 C 231.06 100.26 231.31 101.18 230.90 101.90 C 230.62 102.38 230.11 102.65 229.59 102.65 Z" fill="#ccccde" fill-rule="nonzero" group-id="1,11" node-id="576" stroke="none" target-height="5.635002" target-width="7.625" target-x="223.684" target-y="97.014"></path><path d="M 225.40 75.22 C 224.88 75.22 224.38 74.95 224.10 74.47 C 223.68 73.76 223.93 72.84 224.65 72.42 L 228.85 70.00 C 229.56 69.58 230.48 69.83 230.90 70.55 C 231.31 71.27 231.06 72.18 230.35 72.60 L 226.15 75.02 C 225.91 75.16 225.65 75.22 225.40 75.22 Z" fill="#ccccde" fill-rule="nonzero" group-id="1,11" node-id="578" stroke="none" target-height="5.639" target-width="7.625" target-x="223.684" target-y="69.585"></path><path d="M 216.24 66.07 C 215.99 66.07 215.73 66.01 215.49 65.87 C 214.78 65.46 214.53 64.54 214.94 63.82 L 217.37 59.62 C 217.78 58.90 218.70 58.66 219.42 59.07 C 220.14 59.49 220.38 60.41 219.97 61.12 L 217.54 65.32 C 217.27 65.81 216.76 66.07 216.24 66.07 Z" fill="#ccccde" fill-rule="nonzero" group-id="1,11" node-id="580" stroke="none" target-height="7.4139977" target-width="5.8519897" target-x="214.531" target-y="58.66"></path><g node-id="949"><path d="M 203.74 59.33 C 202.91 59.33 202.24 58.66 202.24 57.83 L 202.24 56.37 C 202.24 55.54 202.91 54.87 203.74 54.87 C 204.57 54.87 205.24 55.54 205.24 56.37 L 205.24 57.83 C 205.24 58.66 204.57 59.33 203.74 59.33 Z" fill="#ccccde" fill-opacity="0.39" fill-rule="nonzero" group-id="1,11,47" node-id="584" stroke="none" target-height="4.454998" target-width="3" target-x="202.243" target-y="54.873"></path><path d="M 198.81 59.76 C 198.09 59.76 197.46 59.25 197.33 58.52 L 197.08 57.09 C 196.94 56.27 197.48 55.49 198.30 55.35 C 199.12 55.21 199.90 55.75 200.04 56.57 L 200.29 58.00 C 200.43 58.81 199.89 59.59 199.07 59.74 C 198.98 59.75 198.90 59.76 198.81 59.76 Z" fill="#ccccde" fill-opacity="0.39" fill-rule="nonzero" group-id="1,11,47" node-id="586" stroke="none" target-height="4.549999" target-width="3.494995" target-x="196.938" target-y="55.209"></path><path d="M 194.03 61.04 C 193.42 61.04 192.84 60.66 192.62 60.05 L 192.12 58.69 C 191.84 57.91 192.25 57.05 193.02 56.77 C 193.80 56.48 194.66 56.89 194.94 57.66 L 195.44 59.03 C 195.72 59.81 195.32 60.67 194.54 60.95 C 194.37 61.01 194.20 61.04 194.03 61.04 Z" fill="#ccccde" fill-opacity="0.39" fill-rule="nonzero" group-id="1,11,47" node-id="588" stroke="none" target-height="4.556999" target-width="3.8789978" target-x="191.843" target-y="56.484"></path><path d="M 189.55 63.13 C 189.03 63.13 188.53 62.86 188.25 62.38 L 187.52 61.12 C 187.10 60.41 187.35 59.49 188.07 59.07 C 188.78 58.66 189.70 58.91 190.12 59.62 L 190.84 60.88 C 191.26 61.60 191.01 62.51 190.30 62.93 C 190.06 63.07 189.80 63.13 189.55 63.13 Z" fill="#ccccde" fill-opacity="0.39" fill-rule="nonzero" group-id="1,11,47" node-id="590" stroke="none" target-height="4.472" target-width="4.1539917" target-x="187.104" target-y="58.659"></path><path d="M 185.49 65.97 C 185.06 65.97 184.64 65.79 184.34 65.44 L 183.41 64.32 C 182.88 63.69 182.96 62.74 183.59 62.21 C 184.23 61.68 185.18 61.76 185.71 62.40 L 186.64 63.51 C 187.17 64.14 187.09 65.09 186.45 65.62 C 186.17 65.86 185.83 65.97 185.49 65.97 Z" fill="#ccccde" fill-opacity="0.39" fill-rule="nonzero" group-id="1,11,47" node-id="592" stroke="none" target-height="4.2960014" target-width="4.296997" target-x="182.875" target-y="61.676"></path><path d="M 181.99 69.47 C 181.65 69.47 181.31 69.36 181.03 69.12 L 179.91 68.19 C 179.28 67.65 179.19 66.71 179.73 66.07 C 180.26 65.44 181.21 65.36 181.84 65.89 L 182.95 66.82 C 183.59 67.36 183.67 68.30 183.14 68.94 C 182.84 69.29 182.42 69.47 181.99 69.47 Z" fill="#ccccde" fill-opacity="0.39" fill-rule="nonzero" group-id="1,11,47" node-id="594" stroke="none" target-height="4.114998" target-width="4.4769897" target-x="179.195" target-y="65.357"></path><path d="M 179.15 73.53 C 178.89 73.53 178.63 73.46 178.40 73.32 L 177.14 72.60 C 176.42 72.18 176.18 71.26 176.59 70.55 C 177.01 69.83 177.93 69.59 178.64 70.00 L 179.90 70.73 C 180.62 71.14 180.86 72.06 180.45 72.78 C 180.17 73.26 179.66 73.53 179.15 73.53 Z" fill="#ccccde" fill-opacity="0.39" fill-rule="nonzero" group-id="1,11,47" node-id="596" stroke="none" target-height="3.939003" target-width="4.6829987" target-x="176.179" target-y="69.587"></path><path d="M 177.06 78.02 C 176.89 78.02 176.71 77.98 176.54 77.92 L 175.18 77.42 C 174.40 77.14 174.00 76.28 174.28 75.50 C 174.57 74.72 175.43 74.32 176.21 74.61 L 177.57 75.11 C 178.35 75.39 178.75 76.25 178.47 77.03 C 178.25 77.64 177.67 78.02 177.06 78.02 Z" fill="#ccccde" fill-opacity="0.39" fill-rule="nonzero" group-id="1,11,47" node-id="598" stroke="none" target-height="3.6940002" target-width="4.750992" target-x="174.001" target-y="74.321"></path><path d="M 175.78 82.79 C 175.69 82.79 175.61 82.79 175.52 82.77 L 174.09 82.52 C 173.27 82.38 172.72 81.60 172.87 80.78 C 173.01 79.97 173.79 79.42 174.60 79.57 L 176.04 79.82 C 176.85 79.96 177.40 80.74 177.25 81.55 C 177.13 82.28 176.49 82.79 175.78 82.79 Z" fill="#ccccde" fill-opacity="0.39" fill-rule="nonzero" group-id="1,11,47" node-id="600" stroke="none" target-height="3.3720016" target-width="4.672989" target-x="172.725" target-y="79.422"></path><path d="M 175.34 87.73 C 175.34 87.73 175.34 87.73 175.34 87.73 L 173.89 87.72 C 173.06 87.72 172.39 87.05 172.39 86.22 C 172.39 85.39 173.07 84.72 173.89 84.72 C 173.89 84.72 173.89 84.72 173.90 84.72 L 175.35 84.73 C 176.18 84.73 176.85 85.40 176.84 86.23 C 176.84 87.06 176.17 87.73 175.34 87.73 Z" fill="#ccccde" fill-opacity="0.39" fill-rule="nonzero" group-id="1,11,47" node-id="602" stroke="none" target-height="3.001999" target-width="4.4539948" target-x="172.392" target-y="84.725"></path><path d="M 174.34 92.91 C 173.63 92.91 173.00 92.40 172.87 91.67 C 172.72 90.86 173.27 90.08 174.09 89.93 L 175.52 89.68 C 176.33 89.53 177.11 90.08 177.25 90.90 C 177.40 91.71 176.85 92.49 176.04 92.63 L 174.61 92.89 C 174.52 92.90 174.43 92.91 174.34 92.91 Z" fill="#ccccde" fill-opacity="0.39" fill-rule="nonzero" group-id="1,11,47" node-id="604" stroke="none" target-height="3.3759995" target-width="4.675003" target-x="172.724" target-y="89.535"></path><path d="M 175.69 97.94 C 175.08 97.94 174.51 97.56 174.29 96.95 C 174.00 96.17 174.40 95.31 175.18 95.03 L 176.55 94.53 C 177.32 94.25 178.19 94.65 178.47 95.42 C 178.75 96.20 178.35 97.06 177.57 97.35 L 176.21 97.84 C 176.04 97.91 175.87 97.94 175.69 97.94 Z" fill="#ccccde" fill-opacity="0.39" fill-rule="nonzero" group-id="1,11,47" node-id="606" stroke="none" target-height="3.687996" target-width="4.751007" target-x="174.002" target-y="94.248"></path><path d="M 177.89 102.65 C 177.38 102.65 176.87 102.38 176.59 101.90 C 176.18 101.18 176.42 100.27 177.14 99.85 L 178.40 99.12 C 179.12 98.71 180.03 98.95 180.45 99.67 C 180.86 100.39 180.62 101.31 179.90 101.72 L 178.64 102.45 C 178.41 102.59 178.15 102.65 177.89 102.65 Z" fill="#ccccde" fill-opacity="0.39" fill-rule="nonzero" group-id="1,11,47" node-id="608" stroke="none" target-height="3.941002" target-width="4.6849976" target-x="176.179" target-y="98.71"></path><path d="M 180.88 106.91 C 180.45 106.91 180.02 106.73 179.73 106.38 C 179.19 105.74 179.28 104.80 179.91 104.27 L 181.03 103.33 C 181.66 102.80 182.61 102.88 183.14 103.51 C 183.67 104.15 183.59 105.09 182.96 105.63 L 181.84 106.56 C 181.56 106.80 181.22 106.91 180.88 106.91 Z" fill="#ccccde" fill-opacity="0.39" fill-rule="nonzero" group-id="1,11,47" node-id="610" stroke="none" target-height="4.118004" target-width="4.4769897" target-x="179.195" target-y="102.795"></path><path d="M 184.56 110.59 C 184.22 110.59 183.88 110.48 183.59 110.25 C 182.96 109.72 182.87 108.77 183.41 108.13 L 184.34 107.02 C 184.87 106.38 185.82 106.30 186.45 106.83 C 187.09 107.36 187.17 108.31 186.64 108.94 L 185.71 110.06 C 185.41 110.41 184.99 110.59 184.56 110.59 Z" fill="#ccccde" fill-opacity="0.39" fill-rule="nonzero" group-id="1,11,47" node-id="612" stroke="none" target-height="4.300003" target-width="4.300003" target-x="182.874" target-y="106.295"></path><path d="M 188.82 113.58 C 188.56 113.58 188.30 113.51 188.07 113.38 C 187.35 112.96 187.10 112.05 187.52 111.33 L 188.25 110.07 C 188.66 109.35 189.58 109.11 190.30 109.52 C 191.01 109.94 191.26 110.85 190.84 111.57 L 190.12 112.83 C 189.84 113.31 189.33 113.58 188.82 113.58 Z" fill="#ccccde" fill-opacity="0.39" fill-rule="nonzero" group-id="1,11,47" node-id="614" stroke="none" target-height="4.4729996" target-width="4.154007" target-x="187.105" target-y="109.106"></path><path d="M 193.53 115.78 C 193.36 115.78 193.19 115.75 193.02 115.69 C 192.24 115.40 191.84 114.54 192.12 113.76 L 192.62 112.40 C 192.91 111.62 193.77 111.22 194.54 111.50 C 195.32 111.78 195.72 112.64 195.44 113.42 L 194.94 114.79 C 194.72 115.40 194.15 115.78 193.53 115.78 Z" fill="#ccccde" fill-opacity="0.39" fill-rule="nonzero" group-id="1,11,47" node-id="616" stroke="none" target-height="4.558998" target-width="3.8850098" target-x="191.84" target-y="111.217"></path><path d="M 198.56 117.12 C 198.48 117.12 198.39 117.12 198.30 117.10 C 197.49 116.96 196.94 116.18 197.08 115.37 L 197.33 113.93 C 197.48 113.12 198.25 112.58 199.07 112.71 C 199.89 112.86 200.43 113.63 200.29 114.45 L 200.04 115.88 C 199.91 116.61 199.28 117.12 198.56 117.12 Z" fill="#ccccde" fill-opacity="0.39" fill-rule="nonzero" group-id="1,11,47" node-id="618" stroke="none" target-height="4.550003" target-width="3.4900055" target-x="196.941" target-y="112.575"></path><path d="M 203.74 117.58 C 202.92 117.58 202.24 116.91 202.24 116.08 L 202.24 114.62 C 202.24 113.79 202.92 113.12 203.74 113.12 C 204.57 113.12 205.24 113.79 205.24 114.62 L 205.24 116.08 C 205.24 116.91 204.57 117.58 203.74 117.58 Z" fill="#ccccde" fill-opacity="0.39" fill-rule="nonzero" group-id="1,11,47" node-id="620" stroke="none" target-height="4.4560013" target-width="3" target-x="202.244" target-y="113.122"></path><path d="M 208.93 117.12 C 208.21 117.12 207.58 116.61 207.45 115.88 L 207.20 114.45 C 207.06 113.63 207.60 112.86 208.42 112.71 C 209.24 112.57 210.01 113.12 210.15 113.93 L 210.40 115.37 C 210.55 116.18 210.00 116.96 209.19 117.10 C 209.10 117.12 209.01 117.12 208.93 117.12 Z" fill="#ccccde" fill-opacity="0.39" fill-rule="nonzero" group-id="1,11,47" node-id="622" stroke="none" target-height="4.5510025" target-width="3.4920044" target-x="207.055" target-y="112.574"></path><path d="M 213.95 115.78 C 213.34 115.78 212.77 115.40 212.54 114.79 L 212.05 113.42 C 211.76 112.64 212.16 111.78 212.94 111.50 C 213.72 111.22 214.58 111.62 214.87 112.40 L 215.36 113.76 C 215.65 114.54 215.25 115.40 214.47 115.69 C 214.30 115.75 214.12 115.78 213.95 115.78 Z" fill="#ccccde" fill-opacity="0.39" fill-rule="nonzero" group-id="1,11,47" node-id="624" stroke="none" target-height="4.558998" target-width="3.8849945" target-x="211.763" target-y="111.217"></path><path d="M 218.67 113.58 C 218.15 113.58 217.65 113.31 217.37 112.83 L 216.64 111.57 C 216.23 110.85 216.48 109.93 217.19 109.52 C 217.91 109.11 218.83 109.35 219.24 110.07 L 219.97 111.33 C 220.38 112.05 220.14 112.97 219.42 113.38 C 219.18 113.51 218.93 113.58 218.67 113.58 Z" fill="#ccccde" fill-opacity="0.39" fill-rule="nonzero" group-id="1,11,47" node-id="626" stroke="none" target-height="4.473999" target-width="4.153" target-x="216.23" target-y="109.105"></path><path d="M 222.94 110.59 C 222.51 110.59 222.08 110.41 221.78 110.06 L 220.85 108.94 C 220.32 108.31 220.40 107.36 221.03 106.83 C 221.67 106.30 222.62 106.38 223.15 107.02 L 224.08 108.13 C 224.62 108.77 224.53 109.71 223.90 110.25 C 223.62 110.48 223.28 110.59 222.94 110.59 Z" fill="#ccccde" fill-opacity="0.39" fill-rule="nonzero" group-id="1,11,47" node-id="628" stroke="none" target-height="4.298004" target-width="4.300003" target-x="220.316" target-y="106.297"></path><path d="M 226.61 106.91 C 226.27 106.91 225.93 106.80 225.65 106.56 L 224.53 105.63 C 223.90 105.09 223.81 104.15 224.35 103.51 C 224.88 102.88 225.83 102.80 226.46 103.33 L 227.57 104.26 C 228.21 104.80 228.29 105.74 227.76 106.38 C 227.46 106.73 227.04 106.91 226.61 106.91 Z" fill="#ccccde" fill-opacity="0.39" fill-rule="nonzero" group-id="1,11,47" node-id="630" stroke="none" target-height="4.1170044" target-width="4.477997" target-x="223.815" target-y="102.796"></path><path d="M 229.59 102.65 C 229.34 102.65 229.08 102.59 228.84 102.45 L 227.59 101.72 C 226.87 101.31 226.62 100.39 227.04 99.67 C 227.45 98.95 228.38 98.71 229.09 99.12 L 230.35 99.85 C 231.06 100.27 231.31 101.19 230.89 101.90 C 230.62 102.38 230.11 102.65 229.59 102.65 Z" fill="#ccccde" fill-opacity="0.39" fill-rule="nonzero" group-id="1,11,47" node-id="632" stroke="none" target-height="3.939003" target-width="4.6840057" target-x="226.625" target-y="98.712"></path><path d="M 231.79 97.94 C 231.62 97.94 231.45 97.91 231.28 97.84 L 229.92 97.35 C 229.14 97.06 228.74 96.20 229.02 95.42 C 229.31 94.64 230.17 94.24 230.94 94.53 L 232.31 95.03 C 233.09 95.31 233.49 96.17 233.20 96.95 C 232.98 97.56 232.41 97.94 231.79 97.94 Z" fill="#ccccde" fill-opacity="0.39" fill-rule="nonzero" group-id="1,11,47" node-id="634" stroke="none" target-height="3.6930008" target-width="4.748993" target-x="228.737" target-y="94.243"></path><path d="M 233.15 92.91 C 233.06 92.91 232.97 92.90 232.88 92.89 L 231.45 92.63 C 230.63 92.49 230.09 91.71 230.23 90.89 C 230.38 90.08 231.16 89.54 231.97 89.68 L 233.41 89.93 C 234.22 90.08 234.76 90.86 234.62 91.67 C 234.49 92.40 233.86 92.91 233.15 92.91 Z" fill="#ccccde" fill-opacity="0.39" fill-rule="nonzero" group-id="1,11,47" node-id="636" stroke="none" target-height="3.373001" target-width="4.67601" target-x="230.088" target-y="89.538"></path><path d="M 233.60 87.72 L 232.14 87.72 C 231.31 87.72 230.64 87.05 230.64 86.22 C 230.64 85.40 231.31 84.72 232.14 84.72 L 233.60 84.72 C 234.42 84.72 235.10 85.40 235.10 86.22 C 235.10 87.05 234.42 87.72 233.60 87.72 Z" fill="#ccccde" fill-opacity="0.39" fill-rule="nonzero" group-id="1,11,47" node-id="638" stroke="none" target-height="3" target-width="4.4549866" target-x="230.641" target-y="84.725"></path><path d="M 231.71 82.79 C 230.99 82.79 230.36 82.28 230.23 81.55 C 230.09 80.73 230.63 79.96 231.45 79.81 L 232.88 79.56 C 233.70 79.42 234.48 79.97 234.62 80.78 C 234.76 81.60 234.22 82.38 233.40 82.52 L 231.97 82.77 C 231.88 82.78 231.79 82.79 231.71 82.79 Z" fill="#ccccde" fill-opacity="0.39" fill-rule="nonzero" group-id="1,11,47" node-id="640" stroke="none" target-height="3.3690033" target-width="4.673996" target-x="230.089" target-y="79.423"></path><path d="M 230.43 78.02 C 229.82 78.02 229.24 77.64 229.02 77.03 C 228.74 76.25 229.14 75.39 229.91 75.11 L 231.28 74.61 C 232.05 74.32 232.92 74.72 233.20 75.50 C 233.49 76.28 233.09 77.14 232.31 77.42 L 230.94 77.92 C 230.78 77.98 230.60 78.02 230.43 78.02 Z" fill="#ccccde" fill-opacity="0.39" fill-rule="nonzero" group-id="1,11,47" node-id="642" stroke="none" target-height="3.6930008" target-width="4.751007" target-x="228.736" target-y="74.322"></path><path d="M 228.34 73.53 C 227.82 73.53 227.31 73.26 227.04 72.78 C 226.62 72.06 226.87 71.14 227.59 70.73 L 228.85 70.00 C 229.56 69.59 230.48 69.83 230.90 70.55 C 231.31 71.27 231.06 72.18 230.35 72.60 L 229.09 73.33 C 228.85 73.46 228.59 73.53 228.34 73.53 Z" fill="#ccccde" fill-opacity="0.39" fill-rule="nonzero" group-id="1,11,47" node-id="644" stroke="none" target-height="3.9400024" target-width="4.6860046" target-x="226.623" target-y="69.586"></path><path d="M 225.50 69.47 C 225.07 69.47 224.64 69.29 224.35 68.94 C 223.81 68.30 223.90 67.36 224.53 66.82 L 225.65 65.89 C 226.28 65.36 227.23 65.44 227.76 66.07 C 228.29 66.71 228.21 67.66 227.57 68.19 L 226.46 69.12 C 226.18 69.36 225.84 69.47 225.50 69.47 Z" fill="#ccccde" fill-opacity="0.39" fill-rule="nonzero" group-id="1,11,47" node-id="646" stroke="none" target-height="4.1159973" target-width="4.477997" target-x="223.815" target-y="65.356"></path><path d="M 222.00 65.97 C 221.65 65.97 221.31 65.86 221.03 65.62 C 220.40 65.09 220.31 64.14 220.85 63.51 L 221.78 62.39 C 222.32 61.76 223.26 61.68 223.90 62.21 C 224.53 62.74 224.62 63.69 224.08 64.32 L 223.14 65.44 C 222.85 65.79 222.42 65.97 222.00 65.97 Z" fill="#ccccde" fill-opacity="0.39" fill-rule="nonzero" group-id="1,11,47" node-id="648" stroke="none" target-height="4.2960014" target-width="4.30101" target-x="220.314" target-y="61.676"></path><path d="M 217.94 63.13 C 217.69 63.13 217.43 63.07 217.19 62.93 C 216.47 62.52 216.23 61.60 216.64 60.88 L 217.37 59.62 C 217.79 58.91 218.71 58.66 219.42 59.08 C 220.14 59.49 220.38 60.41 219.97 61.12 L 219.24 62.38 C 218.96 62.86 218.46 63.13 217.94 63.13 Z" fill="#ccccde" fill-opacity="0.39" fill-rule="nonzero" group-id="1,11,47" node-id="650" stroke="none" target-height="4.4729996" target-width="4.154999" target-x="216.229" target-y="58.66"></path><path d="M 213.46 61.04 C 213.28 61.04 213.11 61.01 212.94 60.95 C 212.16 60.67 211.76 59.81 212.05 59.03 L 212.54 57.66 C 212.83 56.88 213.69 56.48 214.47 56.77 C 215.25 57.05 215.65 57.91 215.36 58.69 L 214.87 60.05 C 214.64 60.66 214.07 61.04 213.46 61.04 Z" fill="#ccccde" fill-opacity="0.39" fill-rule="nonzero" group-id="1,11,47" node-id="652" stroke="none" target-height="4.5600014" target-width="3.8850098" target-x="211.762" target-y="56.482"></path><path d="M 208.68 59.76 C 208.59 59.76 208.50 59.75 208.41 59.74 C 207.60 59.59 207.05 58.82 207.20 58.00 L 207.45 56.57 C 207.59 55.75 208.37 55.21 209.19 55.35 C 210.00 55.49 210.55 56.27 210.40 57.09 L 210.15 58.52 C 210.03 59.25 209.39 59.76 208.68 59.76 Z" fill="#ccccde" fill-opacity="0.39" fill-rule="nonzero" group-id="1,11,47" node-id="654" stroke="none" target-height="4.552002" target-width="3.4929962" target-x="207.054" target-y="55.209"></path></g><path d="M 203.74 62.72 C 202.91 62.72 202.24 62.05 202.24 61.22 L 202.24 56.37 C 202.24 55.54 202.91 54.87 203.74 54.87 C 204.57 54.87 205.24 55.54 205.24 56.37 L 205.24 61.22 C 205.24 62.05 204.57 62.72 203.74 62.72 Z" fill="#ccccde" fill-rule="nonzero" group-id="1,11" node-id="657" stroke="none" target-height="7.8499985" target-width="3" target-x="202.243" target-y="54.873"></path><path d="M 173.89 87.73 C 173.06 87.73 172.39 87.06 172.39 86.23 C 172.39 85.40 173.06 84.73 173.89 84.73 L 178.74 84.72 C 178.75 84.72 178.75 84.72 178.75 84.72 C 179.57 84.72 180.25 85.40 180.25 86.22 C 180.25 87.05 179.57 87.72 178.75 87.72 L 173.89 87.73 C 173.89 87.73 173.89 87.73 173.89 87.73 Z" fill="#ccccde" fill-rule="nonzero" group-id="1,11" node-id="659" stroke="none" target-height="3.001999" target-width="7.8519897" target-x="172.393" target-y="84.725"></path><path d="M 203.74 117.58 C 202.92 117.58 202.24 116.91 202.24 116.08 L 202.24 111.23 C 202.24 110.40 202.91 109.73 203.74 109.73 C 204.57 109.73 205.24 110.40 205.24 111.23 L 205.24 116.08 C 205.24 116.91 204.57 117.58 203.74 117.58 Z" fill="#ccccde" fill-rule="nonzero" group-id="1,11" node-id="661" stroke="none" target-height="7.850006" target-width="3.001007" target-x="202.243" target-y="109.728"></path><path d="M 233.59 87.72 L 228.75 87.72 C 227.92 87.72 227.25 87.05 227.25 86.22 C 227.25 85.40 227.92 84.72 228.75 84.72 L 233.59 84.72 C 234.42 84.72 235.09 85.40 235.09 86.22 C 235.09 87.05 234.42 87.72 233.59 87.72 Z" fill="#ccccde" fill-rule="nonzero" group-id="1,11" node-id="663" stroke="none" target-height="3" target-width="7.847" target-x="227.247" target-y="84.725"></path><path d="M 218.55 102.61 C 218.16 102.61 217.78 102.47 217.49 102.17 L 202.64 87.33 C 202.36 87.05 202.20 86.66 202.20 86.27 C 202.20 85.87 202.36 85.48 202.64 85.20 L 214.29 73.64 C 214.88 73.06 215.83 73.06 216.41 73.65 C 216.99 74.24 216.99 75.19 216.40 75.77 L 205.83 86.27 L 219.61 100.05 C 220.19 100.64 220.19 101.58 219.61 102.17 C 219.31 102.46 218.93 102.61 218.55 102.61 Z" fill="#ccccde" fill-rule="nonzero" group-id="1,11" node-id="665" stroke="none" target-height="29.554" target-width="17.992996" target-x="202.2" target-y="73.057"></path><path d="M 185.28 97.48 C 185.11 97.48 184.94 97.39 184.85 97.23 C 184.71 96.99 184.79 96.68 185.03 96.55 L 203.45 85.83 C 203.69 85.70 204.00 85.78 204.13 86.02 C 204.27 86.25 204.19 86.56 203.95 86.70 L 185.53 97.41 C 185.45 97.46 185.37 97.48 185.28 97.48 Z" fill="#ccccde" fill-rule="nonzero" group-id="1,11" node-id="667" stroke="none" target-height="11.781998" target-width="19.56601" target-x="184.708" target-y="85.696"></path><path d="M 205.94 86.32 C 205.94 87.57 204.93 88.58 203.68 88.58 C 202.43 88.58 201.41 87.57 201.41 86.32 C 201.41 85.07 202.43 84.05 203.68 84.05 C 204.93 84.05 205.94 85.07 205.94 86.32 Z" fill="#f0f0ff" fill-rule="nonzero" group-id="1,11,48" node-id="671" stroke="none" target-height="4.529999" target-width="4.529999" target-x="201.414" target-y="84.053"></path><path d="M 203.68 90.08 C 201.60 90.08 199.91 88.39 199.91 86.32 C 199.91 84.24 201.60 82.55 203.68 82.55 C 205.76 82.55 207.44 84.24 207.44 86.32 C 207.44 88.39 205.75 90.08 203.68 90.08 Z M 203.68 85.55 C 203.26 85.55 202.91 85.90 202.91 86.32 C 202.91 86.74 203.26 87.08 203.68 87.08 C 204.10 87.08 204.44 86.74 204.44 86.32 C 204.44 85.90 204.10 85.55 203.68 85.55 Z" fill="#ccccde" fill-rule="nonzero" group-id="1,11,48" node-id="673" stroke="none" target-height="7.529999" target-width="7.529999" target-x="199.914" target-y="82.553"></path><path d="M 165.13 92.50 C 162.51 71.01 177.81 51.46 199.31 48.85 C 220.80 46.24 240.35 61.54 242.96 83.03 C 243.31 85.87 243.33 88.68 243.08 91.42 C 243.60 87.94 243.67 84.33 243.22 80.67 C 240.56 58.76 220.64 43.16 198.74 45.83 C 176.83 48.49 161.23 68.41 163.90 90.31 C 164.64 96.43 166.73 102.06 169.84 106.93 C 167.41 102.60 165.76 97.73 165.13 92.50 Z" fill="#ffffff" fill-opacity="0.58" fill-rule="nonzero" group-id="1,11,49" node-id="678" stroke="none" target-height="63.762" target-width="82.438995" target-x="161.233" target-y="43.165"></path><path d="M 203.66 128.32 C 180.49 128.32 161.65 109.48 161.65 86.31 C 161.65 63.15 180.49 44.31 203.66 44.31 C 226.82 44.31 245.66 63.15 245.66 86.31 C 245.66 109.48 226.82 128.32 203.66 128.32 Z M 203.66 47.31 C 182.15 47.31 164.65 64.81 164.65 86.31 C 164.65 107.82 182.15 125.32 203.66 125.32 C 225.17 125.32 242.66 107.82 242.66 86.31 C 242.66 64.81 225.17 47.31 203.66 47.31 Z" fill="#ccccde" fill-rule="nonzero" group-id="1,11" node-id="681" stroke="none" target-height="84.01401" target-width="84.015" target-x="161.649" target-y="44.306"></path><path d="M 203.70 121.60 C 184.22 121.60 168.37 105.75 168.37 86.27 C 168.37 66.78 184.22 50.93 203.70 50.93 C 223.18 50.93 239.04 66.78 239.04 86.27 C 239.04 105.75 223.19 121.60 203.70 121.60 Z M 203.70 53.93 C 185.87 53.93 171.37 68.44 171.37 86.27 C 171.37 104.10 185.87 118.60 203.70 118.60 C 221.53 118.60 236.04 104.09 236.04 86.27 C 236.04 68.44 221.53 53.93 203.70 53.93 Z" fill="#ccccde" fill-rule="nonzero" group-id="1,11" node-id="683" stroke="none" target-height="70.67" target-width="70.67" target-x="168.366" target-y="50.932"></path><path d="M 239.63 69.75 C 241.52 74.34 242.56 79.37 242.56 84.64 C 242.56 106.29 225.01 123.84 203.36 123.84 C 181.71 123.84 164.16 106.29 164.16 84.64 C 164.16 81.78 164.48 78.99 165.06 76.31 C 164.12 79.70 163.61 83.27 163.61 86.96 C 163.61 109.02 181.51 126.91 203.57 126.91 C 225.64 126.91 243.52 109.02 243.52 86.96 C 243.52 80.80 242.12 74.96 239.63 69.75 Z" fill="#6e6e96" fill-opacity="0.15" fill-rule="nonzero" group-id="1,11,50" node-id="687" stroke="none" target-height="57.165" target-width="79.90999" target-x="163.613" target-y="69.746"></path><path d="M 225.73 64.98 C 220.12 59.26 212.30 55.71 203.65 55.71 C 186.57 55.71 172.72 69.56 172.72 86.64 C 172.72 92.58 174.40 98.12 177.30 102.83 L 225.73 64.98 Z" fill="#ffffff" fill-opacity="0.54" fill-rule="nonzero" group-id="1,11,51" node-id="692" stroke="none" target-height="47.121002" target-width="53.00499" target-x="172.723" target-y="55.706"></path><path d="M 212.62 53.25 C 224.90 57.80 233.65 69.62 233.65 83.49 C 233.65 101.30 219.21 115.73 201.40 115.73 C 184.38 115.73 170.45 102.54 169.25 85.83 C 169.31 104.46 184.43 119.54 203.08 119.54 C 221.77 119.54 236.92 104.39 236.92 85.71 C 236.92 70.34 226.66 57.37 212.62 53.25 Z" fill="#6e6e96" fill-opacity="0.1" fill-rule="nonzero" group-id="1,11,52" node-id="697" stroke="none" target-height="66.298004" target-width="67.668015" target-x="169.249" target-y="53.246"></path></g></g><g node-id="904"><g node-id="914"><path d="M 117.15 172.69 L 190.52 172.69 L 190.52 233.84 L 117.15 233.84 Z" fill="#ffdaa8" fill-rule="nonzero" group-id="2,12" node-id="706" stroke="none" target-height="61.147995" target-width="73.378" target-x="117.146" target-y="172.688"></path><path d="M 190.52 235.34 L 117.15 235.34 C 116.32 235.34 115.65 234.66 115.65 233.84 L 115.65 172.69 C 115.65 171.86 116.32 171.19 117.15 171.19 L 190.52 171.19 C 191.35 171.19 192.02 171.86 192.02 172.69 L 192.02 233.84 C 192.02 234.66 191.35 235.34 190.52 235.34 Z M 118.65 232.34 L 189.02 232.34 L 189.02 174.19 L 118.65 174.19 L 118.65 232.34 Z" fill="#6e6e96" fill-rule="nonzero" group-id="2,12" node-id="708" stroke="none" target-height="64.147995" target-width="76.378" target-x="115.646" target-y="171.188"></path></g><g node-id="915"><path d="M 112.70 172.69 L 194.97 172.69 L 194.97 189.74 L 112.70 189.74 Z" fill="#ffdaa8" fill-rule="nonzero" group-id="2,13" node-id="713" stroke="none" target-height="17.046997" target-width="82.272" target-x="112.696" target-y="172.688"></path><path d="M 194.97 191.23 L 112.70 191.23 C 111.87 191.23 111.20 190.56 111.20 189.73 L 111.20 172.69 C 111.20 171.86 111.87 171.19 112.70 171.19 L 194.97 171.19 C 195.80 171.19 196.47 171.86 196.47 172.69 L 196.47 189.73 C 196.47 190.56 195.80 191.23 194.97 191.23 Z M 114.20 188.23 L 193.47 188.23 L 193.47 174.19 L 114.20 174.19 L 114.20 188.23 Z" fill="#6e6e96" fill-rule="nonzero" group-id="2,13" node-id="715" stroke="none" target-height="20.046997" target-width="85.272" target-x="111.196" target-y="171.187"></path></g><path d="M 142.71 200.84 L 164.95 200.84 L 164.95 203.84 L 142.71 203.84 Z" fill="#6e6e96" fill-rule="nonzero" group-id="2" node-id="718" stroke="none" target-height="3" target-width="22.235992" target-x="142.714" target-y="200.835"></path><path d="M 117.15 228.29 L 189.99 228.29 L 189.99 232.29 L 117.15 232.29 Z" fill="#6e6e96" fill-opacity="0.15" fill-rule="nonzero" group-id="2,14" node-id="722" stroke="none" target-height="4" target-width="72.842" target-x="117.146" target-y="228.289"></path><path d="M 112.70 185.29 L 194.97 185.29 L 194.97 189.73 L 112.70 189.73 Z" fill="#6e6e96" fill-opacity="0.15" fill-rule="nonzero" group-id="2,15" node-id="727" stroke="none" target-height="4.442993" target-width="82.272" target-x="112.696" target-y="185.289"></path></g><g node-id="905"><g node-id="918"><path d="M 50.91 227.52 L 47.60 227.52 C 47.60 227.52 49.10 227.85 50.91 227.52 Z M 100.94 218.37 L 100.94 207.15 L 57.19 207.15 L 57.19 217.93 C 57.19 225.00 53.68 227.03 50.91 227.52 L 57.19 227.52 L 57.19 230.52 L 100.94 230.52 L 100.94 227.52 L 110.53 227.52 C 101.76 227.52 100.99 220.25 100.94 218.37 Z" fill="#f0f0ff" fill-rule="nonzero" group-id="3,16" node-id="734" stroke="none" target-height="23.371002" target-width="62.929" target-x="47.599" target-y="207.146"></path><path d="M 102.44 232.02 L 55.69 232.02 L 55.69 229.02 L 51.05 229.02 C 50.47 229.12 49.86 229.17 49.25 229.17 C 49.25 229.17 49.25 229.17 49.25 229.17 C 47.92 229.17 46.10 229.17 46.10 227.52 L 46.10 226.02 L 50.76 226.02 C 54.03 225.39 55.69 222.67 55.69 217.93 L 55.69 205.65 L 102.44 205.65 L 102.44 218.37 C 102.50 220.64 103.43 226.02 110.52 226.02 L 110.52 229.02 L 102.44 229.02 L 102.44 232.02 Z M 58.69 229.02 L 99.44 229.02 L 99.44 226.02 L 102.41 226.02 C 100.40 223.97 99.52 221.15 99.44 218.42 L 99.44 208.65 L 58.69 208.65 L 58.69 217.93 C 58.69 221.81 57.70 224.36 56.36 226.02 L 58.69 226.02 L 58.69 229.02 Z M 110.53 229.02 L 110.53 228.89 L 110.53 229.02 L 110.52 227.52 L 110.53 226.99 L 110.52 226.02 L 110.52 227.52 L 110.52 226.02 L 110.53 226.02 L 110.53 229.02 Z" fill="#6e6e96" fill-rule="nonzero" group-id="3,16" node-id="736" stroke="none" target-height="26.37201" target-width="64.427" target-x="46.101" target-y="205.646"></path></g><g node-id="919"><path d="M 47.60 227.52 L 110.53 227.52 L 110.53 233.52 L 47.60 233.52 Z" fill="#f2f2f2" fill-rule="nonzero" group-id="3,17" node-id="741" stroke="none" target-height="5.996002" target-width="62.929" target-x="47.599" target-y="227.523"></path><path d="M 110.53 235.02 L 47.60 235.02 C 46.77 235.02 46.10 234.35 46.10 233.52 L 46.10 227.52 C 46.10 226.70 46.77 226.02 47.60 226.02 L 110.53 226.02 C 111.36 226.02 112.03 226.70 112.03 227.52 L 112.03 233.52 C 112.03 234.35 111.36 235.02 110.53 235.02 Z M 49.10 232.02 L 109.03 232.02 L 109.03 229.02 L 49.10 229.02 L 49.10 232.02 Z" fill="#6e6e96" fill-rule="nonzero" group-id="3,17" node-id="743" stroke="none" target-height="8.996002" target-width="65.929" target-x="46.099" target-y="226.024"></path></g><g node-id="920"><path d="M 2.35 190.97 L 2.35 94.47 C 2.35 87.88 7.75 82.49 14.34 82.49 L 143.79 82.49 C 150.38 82.49 155.77 87.88 155.77 94.47 L 155.77 190.97" fill="#bbc0d9" fill-rule="nonzero" group-id="3,18" node-id="748" stroke="none" target-height="108.478004" target-width="153.424" target-x="2.349" target-y="82.488"></path></g><path d="M 11.04 91.49 L 146.21 91.49 L 146.21 173.48 L 11.04 173.48 Z" fill="#99bee8" fill-rule="nonzero" group-id="3" node-id="751" stroke="none" target-height="81.983" target-width="135.167" target-x="11.04" target-y="91.493"></path><path d="M 155.78 181.38 L 155.78 195.16 C 155.78 201.75 150.38 207.15 143.80 207.15 L 14.34 207.15 C 7.74 207.15 2.35 201.75 2.35 195.16 L 2.35 181.38 L 155.78 181.38 Z" fill="#f0f0ff" fill-rule="nonzero" group-id="3,19" node-id="755" stroke="none" target-height="25.768997" target-width="153.42801" target-x="2.351" target-y="181.377"></path><path d="M 11.04 91.49 L 146.21 91.49 L 146.21 97.00 L 11.04 97.00 Z" fill="#6e6e96" fill-opacity="0.15" fill-rule="nonzero" group-id="3,20" node-id="760" stroke="none" target-height="5.508003" target-width="135.167" target-x="11.04" target-y="91.493"></path><path d="M 143.29 81.33 L 13.83 81.33 C 7.23 81.33 1.84 86.72 1.84 93.31 L 1.84 98.37 C 1.84 91.78 7.24 86.38 13.83 86.38 L 143.29 86.38 C 149.88 86.38 155.27 91.78 155.27 98.37 L 155.27 93.31 C 155.27 86.72 149.88 81.33 143.29 81.33 Z" fill="#d5dbf7" fill-rule="nonzero" group-id="3" node-id="763" stroke="none" target-height="17.042" target-width="153.429" target-x="1.844" target-y="81.328"></path><path d="M 143.79 208.65 L 14.34 208.65 C 6.90 208.65 0.85 202.60 0.85 195.16 L 0.85 179.88 L 157.28 179.88 L 157.28 195.16 C 157.28 202.60 151.23 208.65 143.79 208.65 Z M 3.85 182.88 L 3.85 195.16 C 3.85 200.94 8.55 205.65 14.34 205.65 L 143.79 205.65 C 149.57 205.65 154.28 200.94 154.28 195.16 L 154.28 182.88 L 3.85 182.88 Z" fill="#6e6e96" fill-rule="nonzero" group-id="3,21" node-id="767" stroke="none" target-height="28.768997" target-width="156.42801" target-x="0.851" target-y="179.877"></path><path d="M 157.27 190.97 L 154.27 190.97 L 154.27 94.47 C 154.27 88.69 149.57 83.99 143.79 83.99 L 14.34 83.99 C 8.55 83.99 3.85 88.69 3.85 94.47 L 3.85 190.97 L 0.85 190.97 L 0.85 94.47 C 0.85 87.04 6.90 80.99 14.34 80.99 L 143.79 80.99 C 151.22 80.99 157.27 87.04 157.27 94.47 L 157.27 190.97 Z" fill="#6e6e96" fill-rule="nonzero" group-id="3,22" node-id="772" stroke="none" target-height="109.978004" target-width="156.425" target-x="0.849" target-y="80.988"></path><path d="M 143.79 201.34 L 14.34 201.34 C 7.74 201.34 2.35 195.94 2.35 189.35 L 2.35 195.16 C 2.35 201.75 7.75 207.15 14.34 207.15 L 143.79 207.15 C 150.38 207.15 155.77 201.75 155.77 195.16 L 155.77 189.35 C 155.78 195.94 150.38 201.34 143.79 201.34 Z" fill="#6e6e96" fill-opacity="0.15" fill-rule="nonzero" group-id="3,23" node-id="777" stroke="none" target-height="17.799988" target-width="153.42801" target-x="2.351" target-y="189.348"></path><path d="M 2.35 176.58 L 155.78 176.58 L 155.78 181.38 L 2.35 181.38 Z" fill="#6e6e96" fill-opacity="0.15" fill-rule="nonzero" group-id="3,24" node-id="782" stroke="none" target-height="4.800995" target-width="153.427" target-x="2.349" target-y="176.576"></path><path d="M 57.19 207.15 L 100.94 207.15 L 100.94 214.79 L 57.19 214.79 Z" fill="#6e6e96" fill-opacity="0.15" fill-rule="nonzero" group-id="3,25" node-id="787" stroke="none" target-height="7.6480103" target-width="43.749004" target-x="57.189" target-y="207.146"></path><path d="M 92.68 227.52 L 110.53 227.52 L 110.53 233.52 L 92.68 233.52 Z" fill="#6e6e96" fill-opacity="0.15" fill-rule="nonzero" group-id="3,26" node-id="792" stroke="none" target-height="5.996002" target-width="17.846" target-x="92.681" target-y="227.523"></path><path d="M 65.24 172.78 L 145.44 92.59 L 145.44 119.60 L 92.25 172.78 Z" fill="#deefff" fill-opacity="0.31" fill-rule="nonzero" group-id="3,27" node-id="797" stroke="none" target-height="80.19701" target-width="80.195" target-x="65.24" target-y="92.588"></path><path d="M 145.44 119.60 L 92.25 172.78 L 145.44 172.78 Z" fill="#ffffff" fill-opacity="0.31" fill-rule="nonzero" group-id="3,28" node-id="802" stroke="none" target-height="53.185005" target-width="53.186996" target-x="92.248" target-y="119.6"></path><path d="M 83.58 195.07 L 73.47 195.07 C 72.64 195.07 71.97 194.39 71.97 193.57 C 71.97 192.74 72.64 192.07 73.47 192.07 L 83.58 192.07 C 84.41 192.07 85.08 192.74 85.08 193.57 C 85.08 194.39 84.41 195.07 83.58 195.07 Z" fill="#6e6e96" fill-rule="nonzero" group-id="3" node-id="805" stroke="none" target-height="3" target-width="13.111" target-x="71.969" target-y="192.066"></path><path d="M 11.04 124.81 L 38.85 97.00 L 80.55 97.00 L 11.67 165.88 Z" fill="#ffffff" fill-opacity="0.17" fill-rule="nonzero" group-id="3,29" node-id="809" stroke="none" target-height="68.881004" target-width="69.506996" target-x="11.04" target-y="97.001"></path><path d="M 103.60 97.00 L 26.77 173.83 L 35.55 173.83 L 112.38 97.00 Z" fill="#ffffff" fill-opacity="0.11" fill-rule="nonzero" group-id="3,30" node-id="814" stroke="none" target-height="76.829994" target-width="85.607994" target-x="26.773" target-y="97.001"></path><path d="M 146.21 174.98 L 11.04 174.98 C 10.21 174.98 9.54 174.31 9.54 173.48 L 9.54 91.49 C 9.54 90.66 10.21 89.99 11.04 89.99 L 146.21 89.99 C 147.03 89.99 147.71 90.66 147.71 91.49 L 147.71 173.48 C 147.71 174.31 147.03 174.98 146.21 174.98 Z M 12.54 171.98 L 144.71 171.98 L 144.71 92.99 L 12.54 92.99 L 12.54 171.98 Z" fill="#6e6e96" fill-rule="nonzero" group-id="3" node-id="817" stroke="none" target-height="84.98401" target-width="138.167" target-x="9.54" target-y="89.993"></path></g><path d="M 218.24 225.88 C 217.94 225.88 217.63 225.79 217.37 225.60 C 216.69 225.12 216.54 224.19 217.02 223.51 L 239.64 191.92 C 240.12 191.24 241.06 191.09 241.73 191.57 C 242.41 192.05 242.56 192.99 242.08 193.66 L 219.46 225.26 C 219.17 225.67 218.71 225.88 218.24 225.88 Z" fill="#6e6e96" fill-rule="nonzero" node-id="820" stroke="none" target-height="34.796997" target-width="26.02301" target-x="216.54" target-y="191.088"></path><path d="M 124.49 236.02 L 32.49 236.02 C 31.66 236.02 30.99 235.35 30.99 234.52 C 30.99 233.69 31.66 233.02 32.49 233.02 L 124.49 233.02 C 125.32 233.02 125.99 233.69 125.99 234.52 C 125.99 235.35 125.32 236.02 124.49 236.02 Z" fill="#6e6e96" fill-opacity="0.15" fill-rule="nonzero" group-id="4" node-id="824" stroke="none" target-height="3" target-width="95" target-x="30.988" target-y="233.02"></path><path d="M 212.65 222.26 C 212.65 224.46 210.40 226.26 207.65 226.26 L 204.85 226.26 C 202.10 226.26 199.85 224.46 199.85 222.26 C 199.85 220.06 202.10 218.25 204.85 218.25 L 207.65 218.25 C 210.40 218.25 212.65 220.06 212.65 222.26 Z" fill="#f0f0ff" fill-rule="nonzero" group-id="5,31" node-id="831" stroke="none" target-height="8.003998" target-width="12.803009" target-x="199.846" target-y="218.254"></path><path d="M 207.65 227.76 L 204.85 227.76 C 201.26 227.76 198.35 225.29 198.35 222.26 C 198.35 219.22 201.26 216.75 204.85 216.75 L 207.65 216.75 C 211.23 216.75 214.15 219.22 214.15 222.26 C 214.15 225.29 211.23 227.76 207.65 227.76 Z M 204.85 219.75 C 202.95 219.75 201.35 220.90 201.35 222.26 C 201.35 223.61 202.95 224.76 204.85 224.76 L 207.65 224.76 C 209.55 224.76 211.15 223.61 211.15 222.26 C 211.15 220.90 209.55 219.75 207.65 219.75 L 204.85 219.75 Z" fill="#6e6e96" fill-rule="nonzero" group-id="5,31" node-id="833" stroke="none" target-height="11.003998" target-width="15.803009" target-x="198.346" target-y="216.754"></path><path d="M 183.22 228.29 C 183.22 225.90 185.18 223.94 187.57 223.94 L 231.93 223.94 C 234.32 223.94 236.28 225.90 236.28 228.29 L 236.28 229.49 C 236.28 231.88 234.33 233.84 231.93 233.84 L 187.57 233.84 C 185.18 233.84 183.22 231.88 183.22 229.49 L 183.22 228.29 L 183.22 228.29 Z" fill="#f0f0ff" fill-rule="nonzero" group-id="5,32" node-id="838" stroke="none" target-height="9.893005" target-width="53.063004" target-x="183.218" target-y="223.943"></path><path d="M 231.93 235.34 L 187.57 235.34 C 184.34 235.34 181.72 232.71 181.72 229.49 L 181.72 228.29 C 181.72 225.07 184.34 222.44 187.57 222.44 L 231.93 222.44 C 235.16 222.44 237.78 225.07 237.78 228.29 L 237.78 229.49 C 237.78 232.71 235.16 235.34 231.93 235.34 Z M 187.57 225.44 C 186.00 225.44 184.72 226.72 184.72 228.29 L 184.72 229.49 C 184.72 231.06 186.00 232.34 187.57 232.34 L 231.93 232.34 C 233.50 232.34 234.78 231.06 234.78 229.49 L 234.78 228.29 C 234.78 226.72 233.50 225.44 231.93 225.44 L 187.57 225.44 Z" fill="#6e6e96" fill-rule="nonzero" group-id="5,32" node-id="840" stroke="none" target-height="12.893005" target-width="56.063004" target-x="181.718" target-y="222.443"></path><path d="M 237.93 170.85 C 237.54 170.85 237.16 170.70 236.87 170.41 L 187.94 121.63 C 187.35 121.04 187.35 120.09 187.93 119.51 C 188.52 118.92 189.47 118.92 190.05 119.50 L 238.99 168.29 C 239.57 168.87 239.57 169.82 238.99 170.41 C 238.70 170.70 238.31 170.85 237.93 170.85 Z" fill="#6e6e96" fill-rule="nonzero" group-id="5" node-id="843" stroke="none" target-height="51.933006" target-width="52.228012" target-x="187.346" target-y="118.917"></path><path d="M 172.75 168.54 C 187.81 153.47 191.05 132.05 179.93 120.94 C 168.83 109.82 147.40 113.06 132.33 128.12 L 172.75 168.54 Z" fill="#f2baba" fill-rule="nonzero" group-id="5,33" node-id="847" stroke="none" target-height="58.717995" target-width="58.72" target-x="132.333" target-y="109.822"></path><path d="M 172.75 170.04 L 172.75 170.04 C 172.35 170.04 171.97 169.88 171.69 169.60 L 131.27 129.19 C 130.99 128.91 130.83 128.52 130.83 128.12 C 130.83 127.73 130.99 127.35 131.27 127.06 C 140.19 118.15 151.92 112.83 162.65 112.83 C 170.04 112.83 176.39 115.27 181.00 119.88 C 186.72 125.60 189.08 133.98 187.64 143.48 C 186.23 152.81 181.32 162.09 173.81 169.60 C 173.53 169.88 173.14 170.04 172.75 170.04 Z M 134.47 128.14 L 172.73 166.40 C 179.20 159.55 183.43 151.30 184.68 143.03 C 185.97 134.50 183.91 127.03 178.87 122.00 C 174.84 117.96 169.23 115.83 162.65 115.83 C 153.12 115.83 142.69 120.41 134.47 128.14 Z" fill="#6e6e96" fill-rule="nonzero" group-id="5,33" node-id="849" stroke="none" target-height="57.21299" target-width="58.244003" target-x="130.834" target-y="112.827"></path><path d="M 162.68 158.48 L 172.75 168.54 C 187.81 153.48 191.05 132.05 179.94 120.94 C 178.00 119.01 175.76 117.52 173.29 116.44 C 179.42 128.08 175.37 145.53 162.68 158.48 Z" fill="#6e6e96" fill-opacity="0.13" fill-rule="nonzero" group-id="5,34" node-id="854" stroke="none" target-height="52.102005" target-width="28.369995" target-x="162.684" target-y="116.44"></path><path d="M 191.28 113.17 C 191.28 118.00 187.37 121.91 182.54 121.91 C 177.71 121.91 173.80 118.00 173.80 113.17 C 173.80 108.34 177.71 104.43 182.54 104.43 C 187.37 104.43 191.28 108.34 191.28 113.17 Z" fill="#f0f0ff" fill-rule="nonzero" group-id="5,35" node-id="859" stroke="none" target-height="17.477997" target-width="17.478012" target-x="173.801" target-y="104.43"></path><path d="M 182.54 123.41 C 176.89 123.41 172.30 118.81 172.30 113.17 C 172.30 107.52 176.90 102.93 182.54 102.93 C 188.19 102.93 192.78 107.52 192.78 113.17 C 192.78 118.81 188.19 123.41 182.54 123.41 Z M 182.54 105.93 C 178.55 105.93 175.30 109.18 175.30 113.17 C 175.30 117.16 178.55 120.41 182.54 120.41 C 186.53 120.41 189.78 117.16 189.78 113.17 C 189.78 109.18 186.53 105.93 182.54 105.93 Z" fill="#6e6e96" fill-rule="nonzero" group-id="5,35" node-id="861" stroke="none" target-height="20.477997" target-width="20.478012" target-x="172.301" target-y="102.93"></path><path d="M 148.25 135.75 L 141.81 129.31 C 152.54 118.57 164.71 120.36 164.71 120.36" fill="#ffffff" fill-opacity="0.64" fill-rule="nonzero" group-id="5,36" node-id="866" stroke="none" target-height="17.180992" target-width="22.907013" target-x="141.805" target-y="118.566"></path><path d="M 249.71 180.78 C 249.71 183.11 247.82 185.00 245.49 185.00 C 243.16 185.00 241.27 183.11 241.27 180.78 C 241.27 178.45 243.16 176.56 245.49 176.56 C 247.82 176.56 249.71 178.45 249.71 180.78 Z" fill="#f0f0ff" fill-rule="nonzero" group-id="5,37" node-id="871" stroke="none" target-height="8.431992" target-width="8.431992" target-x="241.274" target-y="176.565"></path><path d="M 245.49 186.50 C 242.34 186.50 239.77 183.93 239.77 180.78 C 239.77 177.63 242.34 175.06 245.49 175.06 C 248.64 175.06 251.21 177.63 251.21 180.78 C 251.21 183.93 248.64 186.50 245.49 186.50 Z M 245.49 178.06 C 243.99 178.06 242.77 179.28 242.77 180.78 C 242.77 182.28 243.99 183.50 245.49 183.50 C 246.99 183.50 248.21 182.28 248.21 180.78 C 248.21 179.28 246.99 178.06 245.49 178.06 Z" fill="#6e6e96" fill-rule="nonzero" group-id="5,37" node-id="873" stroke="none" target-height="11.432999" target-width="11.432999" target-x="239.773" target-y="175.064"></path><path d="M 183.22 229.49 L 235.10 229.49 L 235.10 232.46 L 183.22 232.46 Z" fill="#6e6e96" fill-opacity="0.15" fill-rule="nonzero" group-id="5,38" node-id="878" stroke="none" target-height="2.9690094" target-width="51.878998" target-x="183.218" target-y="229.486"></path><path d="M 185.66 112.13 C 185.66 114.49 183.75 116.41 181.38 116.41 C 179.02 116.41 177.10 114.49 177.10 112.13 C 177.10 109.76 179.02 107.85 181.38 107.85 C 183.75 107.85 185.66 109.76 185.66 112.13 Z" fill="#ffffff" fill-opacity="0.52" fill-rule="nonzero" group-id="5,39" node-id="883" stroke="none" target-height="8.557999" target-width="8.557999" target-x="177.105" target-y="107.849"></path><path d="M 251.99 235.34 L 187.57 235.34 C 186.74 235.34 186.07 234.66 186.07 233.84 C 186.07 233.01 186.74 232.34 187.57 232.34 L 251.99 232.34 C 252.82 232.34 253.49 233.01 253.49 233.84 C 253.49 234.66 252.82 235.34 251.99 235.34 Z" fill="#6e6e96" fill-opacity="0.15" fill-rule="nonzero" group-id="6" node-id="889" stroke="none" target-height="3" target-width="67.423996" target-x="186.067" target-y="232.336"></path><path d="M 222.49 20.79 L 238.49 20.79 L 238.49 23.79 L 222.49 23.79 Z" fill="#966e6e" fill-opacity="0.43" fill-rule="nonzero" group-id="7" node-id="894" stroke="none" target-height="3" target-width="16" target-x="222.488" target-y="20.789"></path><path d="M 228.99 14.54 L 231.99 14.54 L 231.99 35.04 L 228.99 35.04 Z" fill="#966e6e" fill-opacity="0.43" fill-rule="nonzero" group-id="7" node-id="896" stroke="none" target-height="20.500002" target-width="3" target-x="228.988" target-y="14.539"></path><path d="M 182.96 20.31 C 179.09 20.31 175.94 17.16 175.94 13.29 C 175.94 9.41 179.09 6.26 182.96 6.26 C 186.84 6.26 189.99 9.41 189.99 13.29 C 189.99 17.16 186.84 20.31 182.96 20.31 Z M 182.96 9.26 C 180.74 9.26 178.94 11.07 178.94 13.29 C 178.94 15.51 180.74 17.31 182.96 17.31 C 185.18 17.31 186.99 15.51 186.99 13.29 C 186.99 11.07 185.18 9.26 182.96 9.26 Z" fill="#92c7a7" fill-opacity="0.38" fill-rule="nonzero" group-id="8" node-id="901" stroke="none" target-height="14.049999" target-width="14.048996" target-x="175.937" target-y="6.264"></path></svg>