<svg xmlns="http://www.w3.org/2000/svg" fill="none" viewBox="0 0 1024 1024" height="1024" width="1024">
<g clip-path="url(#clip0_2_4609)">
<rect fill="white" height="1024" width="1024"></rect>
<rect fill="white" height="1024" width="1024"></rect>
<path fill="#372720" d="M925.498 233.552C924.152 230.979 923.703 229.2 924.152 228.213C949.277 174.822 962.647 102.542 943.399 45.4274C931.779 -4.46391 893.373 6.61805 860.262 22.8148C822.514 41.2399 785.066 60.7417 747.917 81.3204C747.649 81.4989 747.321 81.5637 747.006 81.5006C746.69 81.4375 746.413 81.2517 746.234 80.9839C746.056 80.7162 745.991 80.3885 746.054 80.073C746.117 79.7575 746.303 79.4799 746.571 79.3014L756.441 71.405C757.428 70.5974 757.324 69.9992 756.127 69.6103C591.333 14.694 401.773 39.505 275.654 165.804C274.278 167.18 274.518 168.182 276.372 168.81L314.957 182L210.284 160.734C209.118 154.752 210.748 151.94 215.175 152.299L258.156 162.977C261.088 163.725 263.555 162.962 265.559 160.689C383.917 28.1987 603.986 6.21427 761.915 63.6431C763.381 64.1815 764.787 64.0469 766.133 63.2393C808.307 38.2039 853.936 10.6112 897.097 1.32383C958.071 -11.7323 960.763 75.2186 958.115 111.157C955.483 147.379 946.749 184.109 931.913 221.348C929.58 227.211 927.442 231.279 925.498 233.552Z"></path>
<path fill="#FEFEFE" d="M943.4 45.4273C942.921 47.4612 941.665 47.3864 939.631 45.2029C935.907 41.165 936.311 35.2426 930.478 30.3971C929.924 29.9467 929.248 29.672 928.536 29.6081C927.825 29.5442 927.111 29.6939 926.485 30.0381C911.26 38.4132 900.672 51.0654 894.72 67.995C867.321 105.683 844.753 145.808 827.016 188.371C826.269 190.136 826.852 191.003 828.766 190.973H830.785L837.246 195.236C827.6 204.747 829.08 222.335 818.043 225.521C816.308 225.999 815.381 227.136 815.261 228.93C815.082 230.845 814.095 232.385 812.3 233.552C811.164 234.299 811.134 235.062 812.21 235.84L813.377 236.692C814.484 237.5 814.379 238.098 813.063 238.487L807.903 239.967C806.468 240.386 806.258 241.149 807.275 242.256L808.711 243.736C804.194 242.929 801.443 243.347 800.455 244.993C777.454 245.202 755.843 253.128 735.624 268.772C729.283 259.469 720.638 253.966 709.691 252.261C708.225 252.051 706.969 251.408 705.922 250.332C696.814 241.134 688.155 232.295 676.714 225.745C577.515 169.079 465.17 140.768 351.837 157.683C338.602 159.657 316.124 165.31 314.957 182L276.372 168.81C274.518 168.181 274.279 167.179 275.654 165.804C401.774 39.5049 591.334 14.6938 756.128 69.6102C757.324 69.999 757.429 70.5972 756.442 71.4048L746.571 79.3013C746.303 79.4798 746.117 79.7573 746.054 80.0728C745.991 80.3884 746.056 80.7161 746.235 80.9838C746.413 81.2515 746.691 81.4374 747.006 81.5005C747.322 81.5636 747.649 81.4988 747.917 81.3203C785.066 60.7416 822.515 41.2397 860.262 22.8146C893.374 6.61791 931.779 -4.46406 943.4 45.4273Z"></path>
<path fill="#CEC3B9" d="M943.399 45.4271C962.647 102.542 949.277 174.822 924.152 228.212C923.703 229.199 924.152 230.979 925.498 233.551C924.66 235.496 924.75 236.243 925.767 235.795L902.302 208.067C901.973 207.379 901.644 206.692 901.315 206.004C912.143 183.182 918.513 160.464 920.428 137.852C922.432 114.521 918.229 93.7182 907.82 75.4427C902.347 70.8663 897.98 68.3837 894.719 67.9949C900.672 51.0653 911.26 38.413 926.485 30.038C927.111 29.6938 927.825 29.544 928.536 29.608C929.247 29.6719 929.924 29.9466 930.478 30.3969C936.31 35.2425 935.907 41.1648 939.631 45.2028C941.664 47.3863 942.921 47.4611 943.399 45.4271Z"></path>
<path fill="#412D27" d="M894.72 67.995C897.98 68.3838 902.347 70.8664 907.821 75.4428C906.983 75.5026 906.131 75.5774 905.263 75.6671L898.713 72.2573C897.128 71.4497 895.901 71.8086 895.034 73.3341L844.514 160.375C844.036 161.242 844.29 161.676 845.277 161.676H847.61C848.767 161.674 849.882 162.089 850.751 162.842L902.302 208.068L925.767 235.795C970.962 304.5 994.218 381.192 995.534 465.869C990.778 467.036 987.742 463.805 986.426 456.178C986.411 456.076 986.371 455.979 986.309 455.895C986.248 455.812 986.166 455.744 986.07 455.696C985.975 455.648 985.868 455.622 985.759 455.62C985.65 455.618 985.54 455.64 985.439 455.685L984.093 456.403C983.316 456.851 982.732 456.657 982.344 455.819C982.074 455.221 981.82 454.832 981.581 454.653C978.889 353.614 938.913 240.147 859.275 173.7C855.806 170.829 851.125 168.391 845.232 166.387C843.707 165.908 842.6 166.372 841.912 167.778L830.785 190.973H828.766C826.852 191.003 826.269 190.136 827.016 188.371C844.754 145.808 867.321 105.683 894.72 67.995Z"></path>
<path fill="#9B6364" d="M905.263 75.6672C913.369 88.8878 917.332 103.724 917.153 120.175C916.794 148.59 911.515 177.2 901.315 206.004C901.644 206.692 901.973 207.38 902.302 208.068L850.751 162.842C849.882 162.089 848.767 161.674 847.61 161.676H845.277C844.29 161.676 844.036 161.242 844.514 160.375L895.034 73.3342C895.901 71.8087 897.128 71.4498 898.713 72.2574L905.263 75.6672Z"></path>
<path fill="#4E423D" d="M905.263 75.6673C906.13 75.5775 906.983 75.5028 907.82 75.4429C918.229 93.7185 922.432 114.521 920.428 137.852C918.513 160.465 912.142 183.182 901.315 206.004C911.514 177.2 916.794 148.59 917.152 120.175C917.332 103.724 913.369 88.8879 905.263 75.6673Z"></path>
<path fill="#412D27" d="M215.175 152.299C210.748 151.94 209.118 154.752 210.284 160.734C164.88 157.862 132.576 159.298 113.687 206.856C91.7476 255.671 99.1955 309.421 122.436 356.934L134.012 382.508L138.364 391.885C138.617 392.395 138.68 392.981 138.541 393.539C138.401 394.097 138.068 394.592 137.601 394.936L133.698 397.852C132.711 398.6 131.948 399.542 131.409 400.679C116.289 432.803 109.29 465.017 98.1635 498.263C97.2961 500.865 97.999 501.404 100.272 499.878L145.587 469.1C145.71 469.04 145.848 469.022 145.982 469.048C146.116 469.074 146.238 469.143 146.329 469.244C146.42 469.346 146.476 469.474 146.488 469.61C146.499 469.745 146.467 469.881 146.395 469.997C133.324 485.7 119.654 500.656 105.387 514.863C104.49 515.761 103.891 516.763 103.592 517.869C103.233 519.245 102.979 520.442 102.83 521.459C98.1635 525.227 95.1575 529.265 96.1445 535.771C99.2852 556.439 102.8 577.228 106.688 598.135C106.957 599.601 107.795 600.094 109.201 599.616C123.917 594.83 136.749 588.369 147.696 580.234L169.007 567.312C151.48 584.93 132.471 598.778 111.982 608.858C110.666 609.516 110.307 610.518 110.906 611.864C117.516 626.371 125.038 640.339 133.473 653.769C157.252 691.517 190.603 713.905 233.525 720.934C224.372 726.348 213.036 729.788 199.516 731.253C196.645 729.878 194.118 729.384 191.934 729.773C190.409 730.042 190.304 730.58 191.62 731.388C193.325 732.465 195.568 733.138 198.35 733.407L258.426 769.3C303.292 796.07 352.002 814.869 404.555 825.697C406.26 826.026 406.26 826.355 404.555 826.684C389.211 829.555 349.729 818.832 333.891 815.378L324.514 812.417C322.899 811.908 322.271 812.476 322.63 814.121C332.5 856.206 347.171 926.736 398.274 932.389L409.177 932.299L442.826 931.626C446.745 931.148 448.435 930.385 447.896 929.338L479.886 924.178C481.322 923.939 481.935 923.102 481.725 921.666C480.021 909.223 475.773 897.663 468.983 886.984C467.488 885.01 469.402 884.921 474.726 886.715C481.845 895 486.362 905.394 488.276 917.897C488.515 919.512 489.413 920.066 490.968 919.557C536.597 904.303 476.162 847.547 459.606 834.895C487.094 844.646 506.282 862.293 517.17 887.837C517.839 889.379 518.938 890.697 520.337 891.636C521.737 892.574 523.378 893.093 525.066 893.131L595.058 894.477C596.703 894.507 597.735 893.729 598.153 892.144C605.601 865.583 621.215 846.53 644.994 834.984C683.803 816.141 735.803 797.117 781.836 772.396C853.443 733.452 918.319 670.46 950.713 594.905L953.405 594.591C955.409 594.352 956.037 595.174 955.289 597.058C948.649 613.779 940.453 629.706 930.702 644.841C930.583 644.991 930.598 645.14 930.747 645.29L931.689 646.277C931.899 646.456 932.078 646.426 932.228 646.187L970.409 588.983C987.518 599.451 999.243 611.146 1005.58 624.068C1061.76 738.253 981.222 824.261 874.709 849.207L858.288 851.719C835.287 855.877 812.285 857.657 789.284 857.059C788.584 857.046 787.891 857.217 787.27 857.555C786.649 857.893 786.122 858.386 785.739 858.988C758.685 902.463 732.528 930.729 676.131 933.286C650.378 934.184 608.966 935.664 599.006 906.322C598.899 905.989 598.692 905.697 598.412 905.481C598.132 905.265 597.792 905.136 597.436 905.11L520.894 901.252C519.817 901.192 519.144 901.686 518.875 902.732C514.657 918.077 505.744 927.872 492.134 932.12C465.454 940.435 435.962 943.95 403.658 942.663C345.063 935.395 330.257 881.466 317.021 829.78L312.4 809.859C312.071 808.394 311.219 807.362 309.843 806.763C265.276 787.441 223.804 762.884 185.428 733.093C182.378 730.76 181.764 728.038 183.589 724.927C183.802 724.574 184.089 724.271 184.429 724.039C184.77 723.807 185.157 723.651 185.563 723.581L200.504 720.889C202.208 720.59 202.238 720.172 200.593 719.633C150.388 702.898 128.314 672.075 103.054 628.151C102.336 626.895 102.261 625.608 102.83 624.292C103.308 623.215 103.383 622.288 103.054 621.511C99.8834 614.093 97.1466 606.51 94.8434 598.763C94.4546 597.477 93.6171 597.058 92.3309 597.507L52.714 611.326C52.5157 611.412 52.3512 611.561 52.2458 611.75C52.1404 611.938 52.0998 612.157 52.1304 612.371C52.161 612.585 52.261 612.783 52.4151 612.934C52.5691 613.086 52.7687 613.183 52.9832 613.21C68.8658 614.078 84.1503 617.637 98.8365 623.888C99.6142 624.217 99.9432 624.801 99.8236 625.638C99.7338 626.236 99.4946 626.625 99.1057 626.805C98.8365 626.954 98.4626 626.954 97.9841 626.805C79.3496 621.421 60.4758 617.054 41.3628 613.704C38.1025 613.135 38.0427 612.298 41.1833 611.191L91.4336 593.2C92.0115 592.992 92.5028 592.596 92.8283 592.075C93.1538 591.554 93.2947 590.939 93.2282 590.328L86.588 532.496C86.3786 530.611 85.3168 529.654 83.4025 529.624L75.2817 529.49C73.9766 529.473 72.7148 529.019 71.6982 528.2C70.6816 527.382 69.9689 526.246 69.6743 524.974C69.3797 523.703 69.5201 522.369 70.073 521.187C70.626 520.004 71.5595 519.042 72.7243 518.453L85.5112 511.902C86.917 511.184 87.6947 510.033 87.8443 508.447C91.7327 467.589 103.428 429.139 122.93 393.096C123.648 391.81 123.618 390.524 122.84 389.238C89.8633 335.443 75.865 263.433 101.259 203.94C123.244 152.478 163.309 142.294 215.175 152.299ZM905.218 694.867C878.299 721.398 850.825 744.683 822.799 764.724C821.603 765.591 820.81 766.728 820.421 768.134C813.302 795.861 803.297 822.512 790.406 848.085C789.867 849.132 790.181 849.566 791.348 849.386C810.879 846.425 830.426 843.763 849.988 841.4C905.039 834.805 972.114 799.63 1002.89 748.976C1021.38 715.012 1019.04 673.241 1004.33 639.098C1002.56 634.851 1001.2 632.981 1000.25 633.49L979.562 601.769C978.887 600.729 977.949 599.885 976.843 599.324C975.738 598.762 974.503 598.502 973.265 598.57C972.027 598.639 970.828 599.033 969.791 599.713C968.754 600.392 967.915 601.334 967.358 602.442C950.219 636.152 929.506 666.96 905.218 694.867ZM676.939 907.129C677.21 906.841 677.574 906.657 677.967 906.607C678.36 906.558 678.758 906.647 679.093 906.86C679.427 907.072 679.677 907.394 679.8 907.771C679.923 908.148 679.91 908.555 679.765 908.924L674.336 922.384C674.222 922.651 674.186 922.944 674.232 923.231C674.279 923.517 674.406 923.785 674.599 924.002C674.792 924.218 675.043 924.375 675.322 924.454C675.602 924.533 675.898 924.531 676.176 924.448L685.867 921.89C687.542 921.442 688.768 920.44 689.546 918.884L696.725 904.482C696.804 904.279 696.923 904.093 697.074 903.936C697.226 903.779 697.406 903.653 697.606 903.565C697.806 903.478 698.022 903.43 698.24 903.426C698.458 903.422 698.675 903.46 698.878 903.54C699.082 903.62 699.267 903.738 699.424 903.89C699.582 904.041 699.708 904.222 699.795 904.422C699.883 904.622 699.93 904.837 699.934 905.055C699.939 905.273 699.9 905.49 699.82 905.694L695.379 919.961C695.109 920.799 695.409 921.113 696.276 920.903C759.268 905.29 788.611 836.734 803.282 779.709C803.731 777.944 803.177 777.54 801.622 778.498C762.005 802.681 724.901 814.705 684.611 830.498C652.172 843.15 633.329 849.117 616.459 872.762C600.935 894.522 604.121 916.013 633.374 921.89C634.436 922.115 635.544 921.93 636.475 921.373C637.407 920.815 638.094 919.926 638.399 918.884C640.791 910.539 644.231 902.403 648.718 894.477C650.064 892.099 653.294 890.394 655.851 890.619C657.497 890.738 657.856 891.486 656.928 892.862C651.245 901.416 647.641 910.793 646.116 920.993C645.876 922.518 646.534 923.281 648.09 923.281H659.979C660.671 923.282 661.355 923.139 661.989 922.861C662.622 922.583 663.191 922.176 663.658 921.666L676.939 907.129Z"></path>
<path fill="#FDFAEE" d="M735.623 268.772C704.755 293.209 681.171 324.316 664.869 362.093C645.218 353.793 615.247 360.927 598.692 368.375C593.188 371.216 588.552 375.793 584.783 382.104L558.402 421.99L521.342 418.535C521.103 415.066 521.297 412.718 521.925 411.491C522.703 409.607 522.135 407.782 520.22 406.018C476.73 365.937 424.76 346.779 364.31 348.544C354.439 348.813 346.857 350.832 341.563 354.601C337.555 353.943 334.564 354.107 332.59 355.094C330.974 355.932 331.034 356.62 332.769 357.158L399.037 377.168C400.263 380.13 398.558 381.685 393.922 381.835C390.961 381.954 390.781 382.717 393.383 384.123L400.024 387.757C400.489 387.999 400.855 388.397 401.058 388.882C401.26 389.366 401.286 389.906 401.131 390.408C400.977 390.91 400.651 391.341 400.211 391.628C399.77 391.914 399.244 392.036 398.722 391.974C371.937 389.731 353.542 402.338 331.333 422.483C300.734 450.301 282.878 484.578 277.987 525.541C279.004 534.754 277.912 542.381 274.712 548.423C274.562 548.692 274.383 548.722 274.174 548.513L273.411 547.616C273.022 547.167 272.633 547.167 272.244 547.616C269.403 550.876 265.29 552.311 259.906 551.923C240.344 550.487 220.125 553.104 199.247 559.774C197.841 560.253 196.585 560.986 195.478 561.973C190.962 566.16 185.234 568.045 178.294 567.626C175.243 567.446 173 568.718 171.564 571.44C171.44 571.687 171.238 571.887 170.989 572.008C170.739 572.129 170.457 572.164 170.186 572.108C169.914 572.051 169.669 571.907 169.488 571.697C169.308 571.487 169.202 571.223 169.187 570.946L169.007 567.312L147.696 580.233L102.829 521.458C102.979 520.442 103.233 519.245 103.592 517.869C103.891 516.762 104.489 515.76 105.387 514.863C119.654 500.655 133.323 485.7 146.394 469.997C146.467 469.881 146.499 469.745 146.487 469.609C146.475 469.474 146.42 469.346 146.328 469.244C146.237 469.143 146.116 469.074 145.982 469.048C145.848 469.022 145.709 469.04 145.587 469.1L100.272 499.878C97.9987 501.403 97.2957 500.865 98.1632 498.263C109.29 465.017 116.289 432.803 131.409 400.678C131.947 399.542 132.71 398.6 133.697 397.852L137.601 394.936C138.068 394.591 138.401 394.097 138.54 393.539C138.68 392.981 138.617 392.395 138.363 391.885L134.011 382.508C138.558 382.687 142.012 386.037 144.375 392.558C144.974 394.203 146.155 394.98 147.92 394.891L175.782 393.859L177.083 421.99C177.101 422.398 177.221 422.796 177.431 423.147C177.641 423.498 177.935 423.791 178.286 424C178.638 424.209 179.036 424.328 179.445 424.345C179.853 424.362 180.26 424.278 180.627 424.099C182.063 423.381 182.841 422.259 182.96 420.734C183.798 409.786 183.798 398.854 182.96 387.936C181.57 369.541 222.936 333.334 236.262 320.368C237.488 319.171 238.879 318.977 240.434 319.784L255.33 327.501C255.805 327.745 256.335 327.857 256.864 327.826C257.393 327.794 257.902 327.62 258.336 327.322C279.333 313.503 282.16 293.179 268.431 272.137C251.77 246.563 228.26 229.289 197.901 220.316C196.4 219.883 194.798 220.027 193.414 220.72C166.898 233.91 171.161 323.688 173.718 348.544C158.792 349.95 143.209 349.067 126.967 345.897C123.079 341.919 121.359 336.4 121.808 329.341C122.436 319.919 115.751 313.279 114.674 303.992C111.384 274.828 112.834 245.77 119.026 216.816C119.325 215.351 118.906 214.139 117.77 213.182C115.257 211.029 113.896 208.92 113.687 206.856C132.576 159.298 164.879 157.862 210.284 160.733L314.957 182C316.124 165.31 338.602 159.657 351.837 157.683C465.169 140.768 577.515 169.079 676.714 225.745C688.155 232.295 696.814 241.134 705.922 250.331C706.969 251.408 708.225 252.051 709.691 252.261C720.638 253.966 729.282 259.469 735.623 268.772Z"></path>
<path fill="#E1DBD1" d="M981.581 454.653C981.73 502.54 971.441 549.291 950.713 594.905C918.319 670.46 853.442 733.452 781.836 772.396L779.009 771.858C777.903 771.648 777.245 771.005 777.035 769.928C776.557 767.536 777.304 765.935 779.279 765.128C780.924 764.44 781.701 763.198 781.612 761.404L781.477 758.667C781.357 756.364 780.221 755.646 778.067 756.513C767.658 760.686 760.973 768.134 751.102 772.127C739.392 776.838 725.394 787.561 712.697 787.471C708.719 787.441 707.433 786.065 708.838 783.343C709.083 782.851 709.171 782.296 709.091 781.753C709.011 781.209 708.766 780.703 708.39 780.303C708.014 779.902 707.524 779.627 706.987 779.513C706.45 779.398 705.89 779.451 705.384 779.664C655.178 801.469 604.12 823.409 548.262 824.755C521.791 825.413 495.32 826.131 468.849 826.909C466.545 826.968 464.437 827.462 462.522 828.389C454.447 832.337 453.474 834.506 459.606 834.895C476.162 847.547 536.597 904.303 490.968 919.557C489.412 920.066 488.515 919.513 488.276 917.897C486.361 905.395 481.845 895.001 474.726 886.715L480.514 865.763C480.992 863.968 480.678 862.338 479.572 860.872L471.271 850.149C470.224 848.803 468.849 848.16 467.144 848.22C462.896 848.31 459.262 846.874 456.241 843.913C455.105 842.746 453.729 842.058 452.114 841.849C424.386 838.035 395.627 838.888 369.649 836.241C354.126 834.67 326.174 835.657 333.891 815.378C349.729 818.833 389.211 829.556 404.555 826.684C406.26 826.355 406.26 826.026 404.555 825.697C352.002 814.869 303.292 796.07 258.426 769.3C257.319 762.989 251.636 757.949 241.377 754.18C240.419 753.851 239.896 753.178 239.806 752.161C239.746 751.503 239.911 750.98 240.3 750.591C241.167 749.604 242.229 749.335 243.485 749.783C278.481 762.481 316.976 780.607 353.901 784.824C383.064 788.189 407.965 802.277 438.07 803.758C496.636 806.689 550.954 802.456 601.025 791.06C605.152 790.133 606.379 787.995 604.704 784.645C615.591 780.786 623.548 775.028 628.573 767.371C629.619 769.644 631.01 771.155 632.745 771.902C634.091 772.501 635.931 772.336 638.264 771.409C743.161 729.952 848.148 702.494 888.259 581.535C888.618 580.488 889.171 579.576 889.919 578.798L891.354 577.362C892.641 576.106 892.431 575.179 890.726 574.58L889.201 574.042C885.402 573.922 883.817 571.44 884.445 566.594C884.654 565.099 885.372 563.902 886.599 563.005C889.111 561.21 890.143 559.027 889.694 556.455C887.331 542.875 886.928 531.389 888.483 521.997C888.722 520.412 889.515 519.171 890.861 518.273C894.211 515.97 895.841 513.188 895.751 509.928C897.995 509.45 899.655 507.954 900.732 505.442C901.868 505.89 902.81 504.544 903.558 501.404C909.331 496.827 912.128 490.127 911.948 481.303L913.07 463.312C921.056 460.052 926.44 453.412 929.222 443.391C929.67 441.836 929.581 440.311 928.952 438.815C928.055 436.662 928.354 434.687 929.85 432.893C930.246 432.41 930.542 431.852 930.719 431.251C930.896 430.65 930.952 430.018 930.882 429.393L927.876 401.98C917.497 346.405 897.606 289.395 868.203 230.95C859.499 213.601 849.18 201.697 837.246 195.236L830.785 190.974L841.912 167.778C842.6 166.372 843.706 165.908 845.232 166.387C851.124 168.391 855.805 170.829 859.275 173.7C938.913 240.147 978.889 353.614 981.581 454.653Z"></path>
<path fill="#FDFAEE" d="M837.246 195.236C849.18 201.696 859.499 213.601 868.203 230.949C897.606 289.395 917.496 346.405 927.876 401.98L902.616 425.579C875.517 365.1 803.013 307.357 733.47 329.924C730.778 329.595 730.135 329.864 731.541 330.732C752.538 299.505 777.05 273.946 805.077 254.055C815.007 249.838 824.1 247.774 832.355 247.864C832.774 247.864 833.028 247.669 833.118 247.281C833.208 246.922 833.178 246.548 833.028 246.159C832.968 245.92 832.819 245.785 832.58 245.755L808.711 243.736L807.275 242.256C806.258 241.149 806.467 240.386 807.903 239.967L813.063 238.487C814.379 238.098 814.483 237.5 813.377 236.692L812.21 235.84C811.133 235.062 811.163 234.299 812.3 233.551C814.095 232.385 815.082 230.845 815.261 228.93C815.381 227.136 816.308 225.999 818.043 225.52C829.08 222.335 827.599 204.747 837.246 195.236Z"></path>
<path fill="#FCECDC" d="M113.687 206.856C113.896 208.92 115.257 211.029 117.77 213.182C118.906 214.14 119.325 215.351 119.026 216.817C112.835 245.77 111.384 274.829 114.674 303.992C115.751 313.279 122.436 319.919 121.808 329.341C121.359 336.4 123.079 341.919 126.967 345.897L122.436 356.934C99.1952 309.421 91.7474 255.671 113.687 206.856Z"></path>
<path fill="#412D27" d="M175.782 393.859L173.718 348.544C171.161 323.688 166.898 233.911 193.414 220.72C194.798 220.027 196.4 219.883 197.901 220.316C228.261 229.289 251.77 246.563 268.431 272.137C282.16 293.179 279.333 313.503 258.336 327.322C257.902 327.62 257.393 327.794 256.864 327.826C256.335 327.857 255.805 327.745 255.33 327.502L240.434 319.785C238.879 318.977 237.488 319.171 236.262 320.368C222.936 333.334 181.57 369.541 182.961 387.936C183.798 398.854 183.798 409.786 182.961 420.734C182.841 422.259 182.063 423.381 180.627 424.099C180.26 424.278 179.853 424.362 179.445 424.345C179.036 424.328 178.638 424.209 178.287 424C177.935 423.791 177.641 423.498 177.431 423.147C177.221 422.796 177.101 422.399 177.083 421.99L175.782 393.859ZM257.932 321.49C311.816 287.974 200.099 205.106 188.524 233.911C171.385 276.623 180.627 324.854 180.313 369.811C180.313 370.061 180.391 370.306 180.535 370.51C180.68 370.715 180.884 370.87 181.12 370.954C181.357 371.037 181.613 371.046 181.854 370.978C182.095 370.909 182.309 370.768 182.467 370.573L228.231 316.33C229.397 314.954 230.893 314.221 232.717 314.131C241.092 313.743 248.45 316.121 254.791 321.265C255.808 322.073 256.855 322.148 257.932 321.49Z"></path>
<path fill="#A8615D" d="M188.524 233.911C200.1 205.106 311.817 287.975 257.932 321.49C256.855 322.148 255.808 322.073 254.792 321.265C248.45 316.121 241.092 313.743 232.717 314.132C230.893 314.221 229.397 314.954 228.231 316.33L182.467 370.573C182.31 370.768 182.095 370.91 181.854 370.978C181.613 371.046 181.357 371.037 181.12 370.954C180.884 370.87 180.68 370.715 180.535 370.511C180.391 370.306 180.313 370.061 180.313 369.811C180.628 324.855 171.385 276.623 188.524 233.911Z"></path>
<path fill="#CEC3B9" d="M808.711 243.736L832.58 245.755C832.819 245.785 832.969 245.92 833.029 246.159C833.178 246.548 833.208 246.922 833.118 247.281C833.029 247.67 832.774 247.864 832.356 247.864C824.1 247.774 815.007 249.838 805.077 254.056L798.975 253.338C784.498 252.829 778.875 255.925 782.105 262.625C760.45 279.585 741.501 300.432 725.26 325.169C718.141 334.112 701.675 356.545 675.862 392.468C667.277 404.403 654.7 409.502 638.129 407.768C641.808 404.806 644.396 403.475 645.891 403.774L654.057 395.34C654.587 394.809 654.987 394.147 655.223 393.41C678.419 326.156 725.753 258.273 800.456 244.993C801.443 243.347 804.194 242.929 808.711 243.736Z"></path>
<path fill="#170F0A" d="M800.456 244.993C725.753 258.273 678.419 326.156 655.223 393.41C654.987 394.147 654.587 394.808 654.057 395.34L645.891 403.774L664.87 362.094C681.171 324.316 704.756 293.209 735.624 268.772C755.843 253.128 777.454 245.202 800.456 244.993Z"></path>
<path fill="#BDA194" d="M798.975 253.338C794.608 258.213 788.985 261.309 782.105 262.625C778.875 255.925 784.498 252.829 798.975 253.338Z"></path>
<path fill="#4E423D" d="M798.975 253.338L805.077 254.055C777.05 273.946 752.538 299.505 731.541 330.732C731.72 329.476 730.868 329.58 728.983 331.046C729.252 328.534 728.011 326.574 725.259 325.169C741.501 300.432 760.449 279.584 782.105 262.625C788.984 261.309 794.608 258.213 798.975 253.338Z"></path>
<path fill="#170F0A" d="M725.259 325.169C728.011 326.574 729.252 328.534 728.983 331.046L715.972 345.314L667.427 407.633C662.611 407.394 661.445 407.453 663.927 407.812C649.63 411.88 639.43 411.551 633.328 406.825C633.059 404.731 634.659 405.046 638.129 407.767C654.7 409.502 667.277 404.402 675.862 392.468C701.675 356.545 718.141 334.112 725.259 325.169Z"></path>
<path fill="#4E423D" d="M902.616 425.579C908.628 436.228 912.112 448.805 913.07 463.312L911.948 481.303C912.845 474.454 910.407 469.309 904.635 465.869C904.009 465.496 903.51 464.943 903.198 464.28C902.887 463.617 902.778 462.874 902.885 462.145C904.365 452.006 899.475 445.994 896.873 438.187C890.95 420.45 882.86 403.176 872.6 386.366C851.244 357.831 822.275 340.049 785.694 333.02C767.703 329.521 750.25 331.809 732.797 336.52C732.373 336.631 731.925 336.605 731.518 336.446C731.11 336.286 730.764 336 730.529 335.631C730.294 335.261 730.183 334.826 730.212 334.389C730.24 333.952 730.407 333.536 730.688 333.2L733.47 329.924C803.013 307.357 875.516 365.1 902.616 425.579Z"></path>
<path fill="#BBA99B" d="M731.541 330.732C730.135 329.864 730.778 329.595 733.47 329.924L730.688 333.2C730.407 333.535 730.24 333.952 730.212 334.389C730.183 334.826 730.294 335.261 730.529 335.63C730.764 336 731.11 336.285 731.518 336.445C731.926 336.605 732.374 336.631 732.797 336.52C750.25 331.809 767.703 329.521 785.694 333.02C822.275 340.049 851.244 357.831 872.6 386.366C832.55 344.102 785.291 328.833 730.823 340.558C724.856 341.814 721.536 344.506 716.87 348.23C717.288 347.961 716.989 346.988 715.972 345.313L728.983 331.046C730.868 329.58 731.72 329.476 731.541 330.732Z"></path>
<path fill="#372720" d="M872.601 386.366C882.86 403.176 890.951 420.45 896.873 438.187C899.475 445.994 904.366 452.006 902.885 462.145C902.778 462.874 902.887 463.617 903.198 464.28C903.51 464.943 904.01 465.496 904.635 465.869C910.408 469.309 912.846 474.454 911.948 481.303C912.128 490.127 909.331 496.827 903.558 501.403C902.811 500.207 901.764 499.28 900.418 498.622C899.98 498.412 899.49 498.338 899.01 498.41C898.53 498.482 898.082 498.696 897.726 499.025C897.247 499.474 897.172 500.013 897.501 500.641C894.241 500.641 892.521 500.192 892.342 499.295C905.084 485.566 880.138 432.309 870.537 417.503C860.786 399.467 843.333 384.557 818.178 372.772C813.811 366.73 805.406 361.959 792.963 358.459C792.393 358.329 791.795 358.409 791.279 358.684C790.763 358.96 790.364 359.413 790.157 359.96C789.949 360.507 789.946 361.111 790.148 361.659C790.351 362.208 790.745 362.665 791.258 362.946C812.584 373.295 821.214 391.511 817.146 417.593C815.65 427.105 812.375 435.061 807.32 441.462C772.19 488.527 709.332 484.04 693.584 423.291L695.738 399.871C698.459 379.741 705.504 362.527 716.87 348.23C721.536 344.506 724.856 341.814 730.823 340.558C785.291 328.833 832.55 344.102 872.601 386.366ZM802.794 379.646C801.429 374.517 797.69 370.245 792.399 367.77C787.109 365.294 780.7 364.818 774.582 366.446C768.465 368.073 763.14 371.672 759.779 376.449C756.418 381.226 755.297 386.792 756.661 391.92C758.026 397.049 761.765 401.321 767.055 403.796C772.346 406.272 778.755 406.748 784.873 405.12C790.99 403.493 796.315 399.894 799.676 395.117C803.037 390.339 804.158 384.774 802.794 379.646Z"></path>
<path fill="#412D27" d="M715.973 345.314C716.99 346.989 717.289 347.961 716.87 348.23C705.504 362.527 698.46 379.741 695.738 399.871C684.282 407.02 677.193 416.352 674.471 427.868C673.903 430.23 672.243 430.604 669.491 428.989L671.869 418.67C673.574 416.636 674.546 414.781 674.785 413.106C674.995 411.521 674.337 410.519 672.811 410.1C670.299 409.442 668.504 408.62 667.427 407.633L715.973 345.314Z"></path>
<path fill="#D7CAB8" d="M126.967 345.897C143.209 349.067 158.793 349.95 173.718 348.544L175.782 393.859L147.92 394.891C146.155 394.981 144.974 394.203 144.376 392.558C142.013 386.037 138.558 382.687 134.011 382.508L122.436 356.934L126.967 345.897Z"></path>
<path fill="#170F0A" d="M521.926 411.491C505.923 395.339 489.263 383.525 471.945 376.047C435.902 358.19 398.229 349.95 358.927 351.326C353.004 351.55 347.71 353.748 341.563 354.601C346.857 350.832 354.44 348.813 364.31 348.544C424.76 346.779 476.73 365.937 520.221 406.018C522.135 407.782 522.703 409.607 521.926 411.491Z"></path>
<path fill="#FBF1E1" d="M471.944 376.047C444.038 370.962 421.978 365.713 405.767 360.299C401.011 358.713 396.33 359.222 391.723 361.824C379.669 358.893 364.265 357.517 345.511 357.697C342.67 357.726 341.354 356.695 341.563 354.601C347.71 353.748 353.004 351.55 358.926 351.326C398.229 349.95 435.902 358.19 471.944 376.047Z"></path>
<path fill="#412D27" d="M341.563 354.601C341.354 356.695 342.67 357.727 345.511 357.697C364.266 357.517 379.67 358.893 391.724 361.824C393.159 361.196 394.461 361.047 395.627 361.376C395.744 361.4 395.851 361.454 395.94 361.534C396.029 361.613 396.097 361.715 396.137 361.831C396.177 361.947 396.188 362.072 396.17 362.196C396.151 362.32 396.103 362.439 396.031 362.542L394.73 364.292C393.713 365.668 394.027 366.625 395.672 367.163C439.372 381.296 478.181 405.3 521.342 418.535L558.402 421.99C556.189 421.99 556.697 422.528 559.927 423.605C519.189 428.271 478.719 413.151 440.224 396.641C439.476 396.341 438.908 395.848 438.519 395.16L436.725 392.154C436.204 391.255 435.394 390.572 434.436 390.225L399.037 377.169L332.769 357.158C331.035 356.62 330.975 355.932 332.59 355.094C334.564 354.107 337.555 353.943 341.563 354.601Z"></path>
<path fill="#E1DBD1" d="M664.869 362.094L645.891 403.774C644.395 403.475 641.808 404.806 638.129 407.768C634.659 405.046 633.059 404.732 633.328 406.825L598.692 368.375C615.247 360.927 645.218 353.793 664.869 362.094Z"></path>
<path fill="#D7CAB8" d="M471.944 376.047C489.263 383.525 505.923 395.339 521.925 411.491C521.297 412.718 521.103 415.066 521.342 418.535C478.181 405.3 439.371 381.296 395.672 367.163C394.027 366.625 393.713 365.668 394.73 364.292L396.031 362.542C396.103 362.439 396.151 362.32 396.169 362.196C396.188 362.072 396.176 361.947 396.136 361.831C396.096 361.715 396.029 361.613 395.94 361.534C395.851 361.454 395.743 361.4 395.627 361.376C394.46 361.047 393.159 361.196 391.723 361.824C396.33 359.222 401.011 358.713 405.767 360.299C421.978 365.713 444.038 370.962 471.944 376.047Z"></path>
<path fill="#4E423D" d="M818.177 372.772L838.547 396.461L835.406 399.422L827.599 388.834C827.221 388.35 826.692 388.007 826.095 387.86C825.499 387.713 824.87 387.772 824.311 388.025C823.752 388.279 823.294 388.714 823.012 389.259C822.729 389.804 822.638 390.429 822.754 391.032C824.638 400.215 822.769 409.068 817.145 417.593C821.213 391.511 812.584 373.295 791.258 362.946C790.745 362.665 790.35 362.208 790.148 361.659C789.946 361.11 789.949 360.507 790.156 359.96C790.364 359.413 790.763 358.96 791.278 358.684C791.794 358.408 792.392 358.329 792.963 358.459C805.405 361.959 813.81 366.73 818.177 372.772Z"></path>
<path fill="#FEFEFE" d="M784.872 405.121C797.611 401.731 805.635 390.325 802.793 379.646C799.952 368.966 787.321 363.056 774.582 366.446C761.842 369.835 753.819 381.241 756.661 391.921C759.502 402.6 772.133 408.51 784.872 405.121Z"></path>
<path fill="#CEC3B9" d="M598.692 368.375L633.329 406.825C639.43 411.551 649.63 411.88 663.927 407.812C665.572 407.842 665.378 411.835 663.344 419.792C665.378 428.047 663.942 436.497 659.037 445.141C658.349 446.337 657.347 447.13 656.031 447.519C643.109 451.422 630.726 446.577 620.542 446.801C599.634 447.295 512.145 461.472 494.423 441.148C496.636 440.699 498.341 439.952 499.537 438.905C500.524 438.037 500.435 437.26 499.268 436.572C475.22 422.394 451.889 401.082 419.406 399.781C366.778 397.628 319.399 438.68 298.222 484.803C290.595 503.497 285.779 523.403 283.775 544.52C284.942 531.987 283.013 525.661 277.988 525.541C282.878 484.579 300.735 450.301 331.334 422.484C353.542 402.339 371.938 389.731 398.723 391.975C399.244 392.037 399.771 391.914 400.211 391.628C400.651 391.342 400.977 390.91 401.132 390.408C401.286 389.907 401.26 389.366 401.058 388.882C400.855 388.398 400.49 388 400.024 387.757L393.384 384.123C390.781 382.717 390.961 381.954 393.922 381.835C398.558 381.685 400.263 380.13 399.037 377.169L434.436 390.225C435.394 390.572 436.204 391.255 436.724 392.154L438.519 395.16C438.908 395.848 439.476 396.341 440.224 396.641C478.719 413.151 519.189 428.271 559.927 423.605C570.994 412.09 579.28 398.256 584.783 382.104C588.552 375.793 593.188 371.216 598.692 368.375Z"></path>
<path fill="#AAA1A1" d="M818.178 372.772C843.333 384.557 860.786 399.467 870.537 417.503C881.215 442.03 887.556 466.049 889.56 489.559C889.62 490.276 889.53 490.935 889.291 491.533C888.902 492.52 888.558 493.133 888.259 493.372C886.195 494.928 885.118 494.404 885.029 491.802C884.46 469.399 878.493 448.177 867.127 428.137C862.91 417.399 855.656 408.096 845.367 400.23C844.619 399.662 843.886 399.362 843.168 399.333C841.882 399.333 841.104 399.751 840.835 400.589C838.801 399.542 838.039 398.166 838.547 396.461L818.178 372.772Z"></path>
<path fill="#170F0A" d="M584.783 382.104C579.28 398.256 570.994 412.09 559.927 423.605C556.697 422.528 556.188 421.99 558.402 421.99L584.783 382.104Z"></path>
<path fill="#BB9A50" d="M835.406 399.422C844.798 417.309 848.313 435.6 845.95 454.294C831.294 458.152 818.417 453.875 807.32 441.462C812.375 435.061 815.65 427.105 817.146 417.593C822.769 409.069 824.638 400.215 822.754 391.032C822.638 390.429 822.729 389.805 823.012 389.259C823.294 388.714 823.752 388.279 824.311 388.026C824.87 387.772 825.499 387.714 826.095 387.86C826.692 388.007 827.222 388.35 827.599 388.834L835.406 399.422Z"></path>
<path fill="#2E1E1B" d="M838.547 396.461C838.038 398.166 838.801 399.542 840.835 400.589L850.033 424.368C857.301 477.011 837.859 515.895 791.707 541.02L787.31 540.572C755.305 541.589 727.966 533.707 705.294 516.927C733.38 535.053 776.721 546.629 805.481 525.138C829.26 507.371 844.828 485.476 845.95 454.294C848.313 435.6 844.798 417.309 835.406 399.422L838.547 396.461Z"></path>
<path fill="#372720" d="M494.423 441.148C487.693 437.798 480.918 434.523 474.098 431.322C472.842 430.754 472.244 430.769 472.304 431.367C472.333 431.876 473.006 432.728 474.323 433.924C470.913 434.493 469.985 436.452 471.541 439.802C458.918 426.731 447.089 420.988 436.052 422.573C433.001 422.992 432.926 423.71 435.827 424.727C456.346 431.995 464.407 446.278 460.01 467.574C459.711 469.1 459.995 470.52 460.863 471.837L463.151 475.246L463.061 484.085C458.784 503.587 450.199 519.41 437.308 531.554C411.465 555.871 367.406 549.904 345.242 524.061C330.406 506.772 326.413 485.476 333.263 460.171C333.592 458.945 333.203 458.631 332.096 459.229C331.229 459.708 330.735 460.351 330.616 461.158C326.712 484.22 311.548 504.32 307.106 527.65C301.184 533.214 299.808 543.473 302.978 558.428C301.871 557.352 300.555 557.157 299.03 557.845L291.627 537.207C291.42 536.616 291.344 535.988 291.403 535.367C293.167 518.856 297.28 502.974 303.741 487.719C304.459 486.044 303.935 484.937 302.171 484.399C301.004 484.04 299.688 484.175 298.222 484.803C319.399 438.68 366.778 397.628 419.406 399.781C451.889 401.082 475.22 422.394 499.268 436.572C500.435 437.26 500.524 438.037 499.537 438.905C498.341 439.952 496.636 440.699 494.423 441.148ZM456.857 450.326C456.249 446.945 454.831 443.744 452.684 440.906C450.538 438.068 447.705 435.647 444.347 433.784C440.989 431.92 437.173 430.649 433.115 430.044C429.057 429.438 424.837 429.51 420.697 430.255C416.556 431 412.576 432.403 408.984 434.385C405.391 436.367 402.257 438.889 399.759 441.806C397.262 444.724 395.45 447.98 394.427 451.388C393.405 454.797 393.192 458.291 393.8 461.672C394.408 465.052 395.826 468.253 397.973 471.092C400.119 473.93 402.952 476.35 406.31 478.214C409.668 480.077 413.485 481.348 417.543 481.954C421.601 482.559 425.82 482.488 429.961 481.743C434.101 480.998 438.081 479.594 441.673 477.612C445.266 475.63 448.4 473.108 450.898 470.191C453.396 467.274 455.207 464.018 456.23 460.609C457.252 457.201 457.465 453.707 456.857 450.326Z"></path>
<path fill="#CEC3B9" d="M867.127 428.137C862.76 429.513 859.305 428.496 856.762 425.086C856.336 424.519 855.803 424.044 855.194 423.69C854.585 423.335 853.913 423.108 853.218 423.022C851.423 422.783 850.362 423.231 850.032 424.368L840.835 400.589C841.104 399.751 841.882 399.332 843.168 399.332C843.886 399.362 844.619 399.661 845.366 400.23C855.656 408.096 862.909 417.399 867.127 428.137Z"></path>
<path fill="#715337" d="M695.737 399.871L693.584 423.291L672.542 452.275C671.644 453.531 671.136 454.937 671.016 456.492C668.892 482.694 680.318 502.839 705.294 516.927C672.571 501.104 660.637 471.792 669.491 428.989C672.242 430.604 673.903 430.23 674.471 427.867C677.193 416.352 684.282 407.02 695.737 399.871Z"></path>
<path fill="#FBF1E1" d="M927.876 401.98L930.882 429.393C930.952 430.018 930.896 430.65 930.719 431.251C930.542 431.852 930.246 432.41 929.85 432.893C928.354 434.687 928.055 436.661 928.952 438.815C929.581 440.31 929.67 441.836 929.222 443.391C926.44 453.411 921.056 460.052 913.07 463.312C912.113 448.805 908.628 436.228 902.616 425.579L927.876 401.98Z"></path>
<path fill="#715337" d="M667.427 407.633C668.504 408.62 670.298 409.443 672.811 410.101C674.336 410.519 674.994 411.521 674.785 413.107C674.546 414.782 673.574 416.636 671.869 418.67L671.779 416.92C671.659 415.305 670.912 414.931 669.536 415.799L663.344 419.792C665.378 411.835 665.572 407.842 663.927 407.812C661.445 407.453 662.611 407.394 667.427 407.633Z"></path>
<path fill="#FDFAEE" d="M671.869 418.67L669.491 428.989C660.637 471.792 672.571 501.104 705.294 516.927C727.966 533.707 755.305 541.589 787.31 540.572L776.362 552.237C774.567 554.151 774.852 554.525 777.215 553.359C783.077 550.427 787.908 546.315 791.706 541.02C837.859 515.895 857.301 477.011 850.033 424.368C850.362 423.231 851.423 422.783 853.218 423.022C853.913 423.108 854.585 423.335 855.194 423.69C855.803 424.045 856.336 424.519 856.763 425.086C859.305 428.496 862.76 429.513 867.127 428.137C878.493 448.177 884.46 469.399 885.028 491.802C885.118 494.404 886.195 494.928 888.259 493.372C888.558 493.133 888.902 492.52 889.291 491.533C889.53 490.935 889.62 490.277 889.56 489.559C887.556 466.049 881.215 442.03 870.537 417.504C880.138 432.309 905.084 485.566 892.342 499.295C885.552 505.905 878.433 512.201 870.985 518.184C849.09 535.861 835.586 554.032 821.363 578.259C820.914 579.037 820.78 579.68 820.959 580.189C821.228 580.877 821.617 580.951 822.126 580.413L832.669 569.107C828.811 581.968 827.929 593.14 830.022 602.622C752.673 655.968 702.108 689.034 650.108 743.771C649.672 744.22 649.412 744.81 649.376 745.435C649.339 746.06 649.53 746.676 649.911 747.172C650.293 747.668 650.84 748.01 651.453 748.135C652.066 748.261 652.704 748.161 653.249 747.854C729.028 707.564 799.693 645.335 862.82 587.367C869.28 585.004 875.143 581.295 880.407 576.24C881.454 575.253 882.695 574.685 884.131 574.536L889.201 574.042L890.726 574.58C892.431 575.179 892.641 576.106 891.354 577.362L889.919 578.798C889.171 579.576 888.618 580.488 888.259 581.535C848.148 702.494 743.161 729.952 638.264 771.409C635.931 772.336 634.091 772.501 632.745 771.902C631.01 771.155 629.619 769.644 628.573 767.371C632.611 759.415 634.989 753.059 635.706 748.303C642.077 705.231 644.769 666.87 663.613 623.53C664.361 621.795 665.692 620.882 667.606 620.793L685.463 620.254C686.126 620.221 686.758 619.966 687.259 619.53C687.759 619.094 688.099 618.503 688.223 617.851C688.347 617.199 688.249 616.524 687.944 615.935C687.638 615.345 687.144 614.876 686.54 614.601L674.964 609.576L638.353 579.067C634.166 575.567 630.636 576.136 627.765 580.772C624.654 585.917 620.542 589.655 615.427 591.989C614.876 592.238 614.274 592.352 613.672 592.321C613.071 592.29 612.488 592.114 611.972 591.809C606.349 588.489 602.46 583.778 600.307 577.676C599.918 576.599 599.185 576.211 598.108 576.51C581.867 580.772 554.992 628.375 544.134 644.392L513.76 674.453C513.18 675.004 512.815 675.735 512.728 676.517L512.145 680.599C512.116 680.768 512.149 680.942 512.237 681.089C512.325 681.236 512.463 681.346 512.625 681.401C512.788 681.455 512.964 681.449 513.123 681.384C513.282 681.32 513.412 681.2 513.491 681.048L515.24 677.549C515.567 676.875 516.084 676.314 516.729 675.937C517.374 675.559 518.118 675.38 518.868 675.423C519.619 675.466 520.343 675.729 520.95 676.178C521.557 676.628 522.021 677.245 522.284 677.952C535.744 714.877 557.684 783.388 604.704 784.644C606.379 787.994 605.152 790.133 601.025 791.06C550.954 802.456 496.636 806.689 438.07 803.757C407.965 802.277 383.064 788.189 353.901 784.824C316.976 780.606 278.481 762.48 243.485 749.783C242.229 749.335 241.167 749.604 240.3 750.591C239.911 750.98 239.746 751.503 239.806 752.161C239.896 753.178 240.419 753.851 241.377 754.18C251.636 757.949 257.319 762.989 258.426 769.3L198.35 733.407C198.11 732.211 198.499 731.493 199.516 731.253C213.036 729.788 224.372 726.348 233.525 720.934C233.944 718.482 234.736 717.539 235.903 718.108C236.065 718.19 236.201 718.313 236.296 718.464C236.391 718.614 236.441 718.786 236.441 718.96C236.441 719.499 236.426 720.022 236.396 720.53C236.277 721.787 236.651 721.966 237.518 721.069L239.537 719.095C239.61 719.01 239.705 718.945 239.811 718.909C239.918 718.873 240.032 718.866 240.142 718.889C240.252 718.912 240.353 718.964 240.436 719.04C240.519 719.115 240.581 719.212 240.614 719.319C240.763 719.768 240.913 720.246 241.062 720.755C241.242 721.383 241.646 721.607 242.274 721.428L254.522 718.332C255.928 717.973 257.289 718.108 258.605 718.736C293.377 735.247 336.044 736.279 370.098 717.21C384.635 709.09 392.396 694.373 402.985 681.317C409.491 673.331 412.99 664.223 401.19 659.064C399.874 658.495 398.827 657.598 398.05 656.372C395.088 651.765 395.836 647.488 400.293 643.54L425.822 654.353C428.394 655.429 428.648 655.145 426.585 653.5C426.076 653.081 425.373 652.648 424.476 652.199C384.186 632.607 344.928 617.547 306.702 607.019C305.236 606.6 304.414 605.643 304.234 604.147L299.03 557.845C300.555 557.157 301.871 557.352 302.978 558.429C310.426 589.745 382.436 622.812 411.375 615.857C473.963 600.782 512.414 542.097 497.518 476.817C493.839 460.635 486.107 446.338 474.322 433.925C473.006 432.728 472.333 431.876 472.303 431.367C472.244 430.769 472.842 430.754 474.098 431.322C480.918 434.523 487.692 437.798 494.422 441.148C512.145 461.472 599.634 447.295 620.542 446.801C630.726 446.577 643.109 451.422 656.031 447.519C657.347 447.13 658.349 446.338 659.037 445.141C663.942 436.497 665.378 428.047 663.344 419.792L669.536 415.799C670.911 414.931 671.659 415.305 671.779 416.92L671.869 418.67ZM628.303 470.805C629.171 471.223 630.083 471.418 631.04 471.388C632.715 471.388 633.418 470.55 633.149 468.875C632.7 466.333 631.369 465.346 629.156 465.914C611.972 470.446 595.057 475.919 583.841 475.157C583.003 475.097 582.301 475.486 581.732 476.323C580.745 477.729 581.089 478.282 582.764 477.983L625.073 470.356C626.18 470.147 627.257 470.296 628.303 470.805ZM539.423 482.515C539.154 482.126 538.002 482.201 535.969 482.739C533.935 483.277 533.187 484.653 533.725 486.867C533.903 487.6 534.327 488.248 534.925 488.699C535.524 489.149 536.258 489.374 537.001 489.334C549.802 488.826 561.198 484.788 571.189 477.221C573.402 475.546 573.163 475.022 570.471 475.65C563.412 477.265 556.906 480.092 550.954 484.13C550.009 484.766 548.961 485.228 547.87 485.491C546.779 485.754 545.666 485.812 544.595 485.662C543.524 485.512 542.516 485.157 541.629 484.617C540.741 484.077 539.992 483.362 539.423 482.515ZM540.321 522.76L544.718 538.867C558.402 559.685 577.066 563.454 600.217 566.325C601.892 566.534 602.76 567.492 602.819 569.196C603.118 575.627 605.526 581.206 610.043 585.932C612.376 588.354 614.634 588.295 616.818 585.752C622.86 578.843 625.133 571.006 623.637 562.242C623.368 560.657 624.026 559.73 625.611 559.46C640.417 556.888 651.978 548.797 660.293 535.188C671.839 521.249 671.898 510.063 660.473 501.628C636.649 483.995 587.744 495.391 560.78 504.993C548.636 509.3 541.816 515.222 540.321 522.76Z"></path>
<path fill="#4E423D" d="M471.541 439.802C490.564 454.488 498.101 476.966 494.153 507.236C490.893 503.796 489.113 499.474 488.814 494.27L476.745 468.965C475.997 467.38 474.771 466.841 473.066 467.35C469.387 468.427 466.082 471.059 463.151 475.246L460.862 471.836C459.995 470.52 459.711 469.1 460.01 467.574C464.407 446.278 456.346 431.995 435.827 424.727C432.926 423.71 433 422.992 436.051 422.573C447.088 420.988 458.918 426.731 471.541 439.802Z"></path>
<path fill="#E8B559" d="M693.584 423.291C709.332 484.04 772.19 488.527 807.32 441.462C818.417 453.875 831.293 458.152 845.95 454.294C844.828 485.476 829.259 507.371 805.48 525.138C776.721 546.629 733.38 535.053 705.294 516.927C680.318 502.839 668.892 482.694 671.016 456.492C671.136 454.937 671.644 453.531 672.541 452.275L693.584 423.291Z"></path>
<path fill="#FEFEFE" d="M429.96 481.742C447.373 478.609 459.415 464.544 456.856 450.326C454.298 436.108 438.109 427.122 420.696 430.255C403.284 433.388 391.242 447.454 393.8 461.672C396.358 475.889 412.548 484.875 429.96 481.742Z"></path>
<path fill="#170F0A" d="M474.323 433.924C486.108 446.337 493.839 460.635 497.518 476.817C512.414 542.097 473.964 600.782 411.375 615.857C382.436 622.812 310.426 589.745 302.978 558.428C299.808 543.473 301.184 533.214 307.106 527.65C301.363 571.26 330.033 592.213 366.644 604.237C410.343 618.594 445.922 610.249 474.816 573.773C490.28 554.241 496.726 532.062 494.154 507.236C498.102 476.966 490.564 454.488 471.541 439.802C469.986 436.452 470.913 434.493 474.323 433.924Z"></path>
<path fill="#4E423D" d="M981.58 454.653C981.82 454.832 982.074 455.221 982.343 455.819C982.732 456.657 983.315 456.851 984.093 456.402L985.439 455.685C985.54 455.64 985.649 455.618 985.759 455.62C985.868 455.622 985.974 455.648 986.07 455.696C986.165 455.743 986.247 455.812 986.309 455.895C986.371 455.979 986.411 456.076 986.426 456.178C987.742 463.805 990.778 467.036 995.534 465.869C996.072 510.646 987.697 551.683 970.409 588.982L932.228 646.187C932.078 646.426 931.899 646.456 931.689 646.277L930.747 645.289C930.597 645.14 930.582 644.99 930.702 644.841C940.453 629.706 948.649 613.778 955.289 597.058C956.037 595.174 955.408 594.351 953.404 594.591L950.712 594.905C971.441 549.291 981.73 502.54 981.58 454.653Z"></path>
<path fill="#E8B559" d="M463.061 484.085C462.642 494.913 471.227 498.307 488.814 494.269C489.113 499.474 490.893 503.796 494.153 507.236C496.726 532.062 490.28 554.241 474.816 573.773C445.922 610.249 410.343 618.594 366.643 604.237C330.032 592.213 301.363 571.26 307.106 527.65C311.547 504.32 326.712 484.219 330.616 461.158C330.735 460.351 331.229 459.707 332.096 459.229C333.203 458.631 333.592 458.945 333.263 460.171C326.413 485.476 330.406 506.772 345.242 524.061C367.406 549.904 411.465 555.871 437.308 531.553C450.199 519.41 458.784 503.587 463.061 484.085Z"></path>
<path fill="#4E423D" d="M625.073 470.356L582.764 477.983C581.089 478.282 580.745 477.729 581.732 476.323C582.301 475.486 583.003 475.097 583.841 475.156C595.058 475.919 611.972 470.446 629.156 465.914C631.369 465.346 632.7 466.333 633.149 468.875C633.418 470.55 632.715 471.388 631.04 471.388C630.083 471.418 629.171 471.223 628.304 470.804C627.257 470.296 626.18 470.146 625.073 470.356Z"></path>
<path fill="#836B44" d="M488.814 494.27C471.227 498.308 462.642 494.913 463.061 484.085L463.151 475.246C466.082 471.059 469.387 468.427 473.066 467.35C474.771 466.842 475.997 467.38 476.745 468.965L488.814 494.27Z"></path>
<path fill="#412D27" d="M539.423 482.515C539.992 483.362 540.741 484.077 541.629 484.617C542.516 485.157 543.524 485.512 544.595 485.662C545.666 485.812 546.779 485.754 547.87 485.491C548.961 485.228 550.009 484.766 550.954 484.13C556.906 480.092 563.412 477.265 570.471 475.65C573.163 475.022 573.402 475.545 571.189 477.22C561.198 484.788 549.802 488.826 537 489.334C536.258 489.374 535.524 489.149 534.925 488.698C534.327 488.248 533.903 487.6 533.725 486.867C533.187 484.653 533.935 483.277 535.968 482.739C538.002 482.201 539.154 482.126 539.423 482.515Z"></path>
<path fill="#170F0A" d="M299.03 557.845L304.234 604.147C304.414 605.643 305.236 606.6 306.702 607.019C344.928 617.547 384.186 632.607 424.476 652.199C425.373 652.648 426.076 653.081 426.585 653.5C428.648 655.145 428.394 655.429 425.822 654.353L400.293 643.54L377.95 634.925C352.555 623.948 326.279 616.201 299.119 611.685C297.594 611.416 296.203 611.745 294.947 612.672L288.755 617.293C291.866 609.337 291.343 599.077 287.185 586.515C283.985 576.764 282.848 562.766 283.775 544.52C285.779 523.403 290.595 503.497 298.222 484.803C299.688 484.175 301.004 484.04 302.17 484.399C303.935 484.937 304.459 486.044 303.741 487.719C297.28 502.974 293.167 518.856 291.402 535.367C291.343 535.988 291.42 536.615 291.627 537.207L299.03 557.845ZM294.826 570.807C294.779 570.502 294.613 570.227 294.363 570.044C294.114 569.861 293.802 569.784 293.496 569.831L292.432 569.994C292.28 570.017 292.135 570.07 292.004 570.149C291.873 570.228 291.759 570.333 291.668 570.456C291.577 570.58 291.512 570.72 291.475 570.869C291.439 571.017 291.432 571.172 291.455 571.323L296.952 607.247C296.999 607.553 297.166 607.827 297.415 608.011C297.664 608.194 297.976 608.27 298.282 608.224L299.346 608.061C299.498 608.038 299.643 607.985 299.774 607.905C299.905 607.826 300.019 607.722 300.11 607.598C300.201 607.475 300.266 607.335 300.303 607.186C300.339 607.037 300.346 606.882 300.323 606.731L294.826 570.807Z"></path>
<path fill="#170F0A" d="M660.293 535.188L665.901 522.042C666.888 508.791 656.21 500.94 633.867 498.487C615.89 496.543 598.572 498.682 581.912 504.903C564.115 507.027 550.251 512.979 540.321 522.76C541.816 515.222 548.636 509.3 560.78 504.993C587.744 495.391 636.649 483.995 660.473 501.628C671.898 510.063 671.839 521.249 660.293 535.188Z"></path>
<path fill="#C6626B" d="M633.867 498.487C615.621 505.546 598.303 507.685 581.912 504.903C598.572 498.681 615.89 496.543 633.867 498.487Z"></path>
<path fill="#BDA194" d="M903.558 501.403C902.811 504.544 901.868 505.89 900.732 505.441L893.957 507.012C891.445 507.61 890.921 506.847 892.387 504.724C893.314 503.378 895.019 502.017 897.501 500.641C897.172 500.013 897.247 499.474 897.726 499.026C898.082 498.696 898.53 498.482 899.01 498.41C899.49 498.338 899.98 498.412 900.418 498.622C901.764 499.28 902.811 500.207 903.558 501.403Z"></path>
<path fill="#FBA2B7" d="M633.867 498.487C656.21 500.94 666.888 508.791 665.901 522.042C625.761 518.124 585.366 523.732 544.718 538.867L540.321 522.76C550.251 512.979 564.115 507.027 581.912 504.903C598.303 507.685 615.621 505.546 633.867 498.487Z"></path>
<path fill="#412D27" d="M892.341 499.295C892.521 500.192 894.241 500.641 897.501 500.641C895.018 502.017 893.314 503.378 892.386 504.724C890.921 506.847 891.444 507.61 893.957 507.012L900.731 505.441C899.655 507.954 897.995 509.449 895.751 509.928C869.101 525.9 848.073 545.627 832.669 569.107L822.126 580.413C821.617 580.951 821.228 580.877 820.959 580.189C820.78 579.68 820.914 579.037 821.363 578.259C835.586 554.032 849.09 535.861 870.985 518.183C878.433 512.201 885.552 505.905 892.341 499.295Z"></path>
<path fill="#FBF1E1" d="M895.751 509.928C895.841 513.188 894.211 515.97 890.861 518.273C889.515 519.17 888.722 520.412 888.483 521.997C886.928 531.389 887.331 542.875 889.694 556.454C890.143 559.027 889.111 561.21 886.599 563.005C885.372 563.902 884.654 565.099 884.445 566.594C883.817 571.44 885.402 573.922 889.201 574.042L884.131 574.535C882.695 574.685 881.454 575.253 880.407 576.24C875.143 581.295 869.28 585.004 862.819 587.367C862.819 586.081 862.057 585.528 860.531 585.707C859.813 585.767 859.036 586.111 858.198 586.739C849.285 593.439 839.893 598.733 830.022 602.622C827.928 593.14 828.811 581.968 832.669 569.107C848.073 545.627 869.101 525.9 895.751 509.928Z"></path>
<path fill="#C6626B" d="M665.901 522.042L660.293 535.188C651.978 548.797 640.417 556.888 625.611 559.46C624.026 559.73 623.368 560.657 623.637 562.242C625.133 571.006 622.859 578.843 616.817 585.752C614.634 588.294 612.376 588.354 610.043 585.931C605.526 581.206 603.118 575.627 602.819 569.196C602.759 567.491 601.892 566.534 600.217 566.325C577.066 563.453 558.402 559.685 544.717 538.867C585.366 523.732 625.761 518.124 665.901 522.042Z"></path>
<path fill="#D7CAB8" d="M102.83 521.459L147.696 580.233C136.749 588.369 123.917 594.83 109.201 599.616C107.795 600.094 106.957 599.601 106.688 598.135C102.8 577.227 99.2853 556.439 96.1447 535.771C95.1576 529.265 98.1637 525.227 102.83 521.459Z"></path>
<path fill="#FBF1E1" d="M277.988 525.541C283.013 525.661 284.942 531.987 283.775 544.52C282.848 562.765 283.985 576.764 287.185 586.515C291.343 599.077 291.866 609.337 288.755 617.293C286.542 618.788 284.583 621.735 282.878 626.132C282.636 626.78 282.158 627.314 281.535 627.629C280.913 627.944 280.192 628.018 279.513 627.836C267.579 624.367 257.813 627.298 250.215 636.63C249.288 637.767 248.092 638.425 246.626 638.604C208.46 643.091 170.264 643.749 132.038 640.578C130.811 640.459 130.542 640.922 131.23 641.969C132.576 643.973 134.116 644.975 135.851 644.975C161.724 645.125 187.672 645.155 213.694 645.065C215.25 645.065 216.401 645.753 217.149 647.129L226.526 664.806C226.846 665.407 226.954 666.1 226.832 666.775C226.71 667.449 226.366 668.067 225.853 668.53L219.931 674.004C219.222 674.653 218.788 675.548 218.721 676.502C218.654 677.455 218.959 678.393 219.572 679.119L233.884 696.033C234.951 697.3 236.462 698.104 238.101 698.277C249.049 699.503 260.804 702.075 273.366 705.994C317.126 719.603 354.679 710.36 386.026 678.266C386.295 677.997 386.549 677.997 386.788 678.266C387.087 678.535 387.387 678.834 387.686 679.163C387.851 679.353 388.068 679.488 388.31 679.553C388.552 679.618 388.809 679.61 389.051 679.529C389.292 679.449 389.508 679.299 389.672 679.099C389.835 678.899 389.94 678.657 389.974 678.401L391.724 663.415C391.903 661.86 391.589 660.394 390.781 659.019C388.119 654.472 384.739 651.197 380.642 649.193C379.565 648.654 379.011 647.772 378.982 646.546C378.922 644.243 377.935 642.478 376.02 641.251C374.914 640.534 374.734 639.636 375.482 638.559L377.95 634.925L400.293 643.54C395.836 647.488 395.089 651.765 398.05 656.371C398.827 657.598 399.874 658.495 401.19 659.063C412.99 664.223 409.491 673.331 402.985 681.317C392.397 694.373 384.635 709.089 370.098 717.21C336.045 736.278 293.377 735.246 258.605 718.736C257.289 718.107 255.928 717.973 254.522 718.332L242.274 721.427C241.646 721.607 241.242 721.383 241.063 720.755C240.913 720.246 240.764 719.767 240.614 719.319C240.581 719.211 240.52 719.115 240.437 719.039C240.354 718.964 240.252 718.912 240.142 718.889C240.032 718.866 239.918 718.873 239.811 718.909C239.705 718.945 239.61 719.009 239.537 719.094L237.518 721.069C236.651 721.966 236.277 721.786 236.397 720.53C236.426 720.022 236.441 719.498 236.441 718.96C236.441 718.786 236.391 718.614 236.296 718.463C236.201 718.313 236.065 718.19 235.903 718.107C234.736 717.539 233.944 718.481 233.525 720.934C190.603 713.905 157.252 691.517 133.473 653.769C125.038 640.339 117.516 626.371 110.906 611.864C110.307 610.518 110.666 609.516 111.982 608.858C132.471 598.778 151.48 584.929 169.007 567.312L169.187 570.946C169.202 571.223 169.308 571.487 169.489 571.697C169.67 571.907 169.915 572.051 170.186 572.108C170.457 572.164 170.74 572.129 170.989 572.008C171.238 571.887 171.441 571.687 171.565 571.44C173 568.718 175.244 567.446 178.295 567.626C185.234 568.045 190.962 566.16 195.478 561.973C196.585 560.986 197.841 560.253 199.247 559.774C220.125 553.104 240.345 550.487 259.906 551.923C265.29 552.311 269.403 550.876 272.245 547.616C272.634 547.167 273.022 547.167 273.411 547.616L274.174 548.513C274.383 548.722 274.563 548.692 274.712 548.423C277.913 542.381 279.005 534.754 277.988 525.541ZM241.242 603.429C201.102 603.07 163.07 611.67 127.147 629.227C125.741 629.915 125.681 630.708 126.968 631.605C128.044 632.383 129.346 632.398 130.871 631.65C147.083 623.843 162.935 617.637 178.429 613.031C197.139 607.512 220.11 607.871 241.332 605.403C251.621 604.177 251.591 603.519 241.242 603.429Z"></path>
<path fill="#BDA194" d="M787.31 540.572L791.707 541.02C787.908 546.315 783.078 550.427 777.215 553.359C774.852 554.525 774.568 554.151 776.363 552.237L787.31 540.572Z"></path>
<path fill="#AAA1A1" d="M88.2979 586.525L1.63635 557.36C1.0962 557.178 0.510963 557.469 0.329183 558.009C0.147403 558.549 0.43792 559.134 0.978069 559.316L87.6396 588.481C88.1798 588.663 88.765 588.372 88.9468 587.832C89.1286 587.292 88.8381 586.706 88.2979 586.525Z"></path>
<path fill="#715337" d="M293.496 569.831L292.432 569.994C291.795 570.091 291.358 570.686 291.455 571.323L296.952 607.247C297.05 607.884 297.645 608.321 298.282 608.224L299.346 608.061C299.983 607.963 300.42 607.368 300.323 606.731L294.826 570.808C294.728 570.171 294.133 569.733 293.496 569.831Z"></path>
<path fill="#170F0A" d="M674.964 609.576L672.227 611.774L647.237 592.347C643.677 587.233 639.355 584.256 634.271 583.419C632.596 583.15 631.354 583.748 630.547 585.213C627.256 591.136 622.426 595.174 616.055 597.327C614.619 597.806 613.183 597.791 611.748 597.283C606.244 595.278 602.042 591.315 599.14 585.393C598.577 584.227 597.695 583.244 596.597 582.558C595.499 581.872 594.229 581.51 592.935 581.515C591.64 581.52 590.373 581.891 589.28 582.585C588.186 583.279 587.312 584.268 586.757 585.438C575.511 608.798 561.303 628.45 544.134 644.392C554.992 628.375 581.867 580.772 598.108 576.509C599.185 576.21 599.918 576.599 600.307 577.676C602.46 583.778 606.349 588.489 611.972 591.809C612.488 592.114 613.071 592.29 613.672 592.321C614.274 592.352 614.875 592.238 615.427 591.988C620.541 589.655 624.654 585.916 627.765 580.772C630.636 576.136 634.166 575.567 638.353 579.067L674.964 609.576Z"></path>
<path fill="#3A212F" d="M647.237 592.347C634.764 622.468 631.325 653.351 636.918 684.996C636.989 685.33 637.171 685.63 637.433 685.848C637.695 686.067 638.022 686.191 638.363 686.202C638.704 686.212 639.039 686.108 639.314 685.905C639.588 685.703 639.788 685.415 639.879 685.086C644.874 663.999 650.856 643.465 657.826 623.485C659.919 617.532 664.271 614.452 670.882 614.242C671.749 614.212 672.347 613.794 672.676 612.986C672.945 612.268 672.796 611.864 672.228 611.775L674.965 609.576L686.54 614.601C687.144 614.876 687.639 615.345 687.944 615.935C688.249 616.524 688.348 617.199 688.223 617.851C688.099 618.503 687.76 619.094 687.259 619.53C686.759 619.966 686.126 620.221 685.463 620.254L667.606 620.793C665.692 620.882 664.361 621.795 663.613 623.53C644.769 666.87 642.078 705.231 635.706 748.303C634.989 753.059 632.611 759.415 628.573 767.371C623.548 775.028 615.591 780.786 604.704 784.644C557.684 783.388 535.744 714.877 522.285 677.952C522.021 677.245 521.557 676.628 520.95 676.178C520.343 675.729 519.619 675.466 518.869 675.423C518.118 675.38 517.374 675.559 516.729 675.937C516.084 676.314 515.567 676.875 515.24 677.549L513.491 681.048C513.412 681.2 513.282 681.32 513.123 681.384C512.965 681.449 512.788 681.455 512.625 681.401C512.463 681.346 512.325 681.236 512.237 681.089C512.149 680.942 512.116 680.768 512.145 680.599L512.728 676.517C512.815 675.735 513.18 675.004 513.76 674.453L544.134 644.392C561.303 628.45 575.511 608.798 586.757 585.438C587.312 584.268 588.187 583.279 589.28 582.585C590.373 581.891 591.64 581.52 592.935 581.515C594.23 581.511 595.499 581.872 596.597 582.558C597.695 583.245 598.577 584.227 599.14 585.393C602.042 591.316 606.244 595.279 611.748 597.283C613.184 597.791 614.619 597.806 616.055 597.328C622.426 595.174 627.257 591.136 630.547 585.214C631.354 583.748 632.596 583.15 634.271 583.419C639.356 584.257 643.678 587.233 647.237 592.347ZM534.757 685.49C544.942 715.416 562.26 774.191 596.718 774.325C620.093 774.415 628.977 743.726 628.887 724.524C634.061 716.089 635.841 706.697 634.226 696.348C634.017 694.882 633.373 693.641 632.297 692.624C611.658 672.793 553.96 643.944 527.444 666.96C526.397 667.857 526.083 668.979 526.502 670.325C528.297 676.098 531.048 681.153 534.757 685.49Z"></path>
<path fill="#D7CAB8" d="M862.82 587.367C799.693 645.335 729.028 707.564 653.249 747.854C652.704 748.161 652.066 748.261 651.453 748.135C650.84 748.01 650.293 747.668 649.911 747.172C649.53 746.677 649.34 746.06 649.376 745.435C649.412 744.81 649.672 744.22 650.109 743.771C702.109 689.034 752.673 655.968 830.023 602.622C839.893 598.733 849.285 593.439 858.199 586.739C859.036 586.111 859.814 585.767 860.532 585.707C862.057 585.528 862.82 586.081 862.82 587.367Z"></path>
<path fill="#9B6364" d="M647.237 592.347L672.228 611.774C672.796 611.864 672.945 612.268 672.676 612.986C672.347 613.793 671.749 614.212 670.882 614.242C664.271 614.451 659.919 617.532 657.825 623.484C650.856 643.465 644.874 663.999 639.879 685.086C639.787 685.415 639.588 685.703 639.314 685.905C639.039 686.108 638.704 686.212 638.363 686.201C638.022 686.191 637.694 686.067 637.432 685.848C637.17 685.63 636.989 685.33 636.918 684.996C631.324 653.35 634.764 622.468 647.237 592.347Z"></path>
<path fill="#FDFAEE" d="M1000.25 633.49L970.409 662.294C970.359 662.359 970.333 662.438 970.334 662.52C970.336 662.602 970.365 662.68 970.418 662.743C970.47 662.806 970.542 662.849 970.622 662.865C970.702 662.881 970.785 662.87 970.858 662.832L1004.33 639.098C1019.04 673.241 1021.38 715.012 1002.89 748.976C982.703 743.263 967.897 738.282 958.475 734.035C940.289 725.81 922.537 712.754 905.219 694.867C929.506 666.96 950.219 636.152 967.358 602.442C967.915 601.334 968.754 600.392 969.791 599.713C970.829 599.033 972.027 598.639 973.265 598.57C974.503 598.502 975.738 598.762 976.843 599.324C977.949 599.885 978.887 600.729 979.562 601.769L1000.25 633.49Z"></path>
<path fill="#CEC3B9" d="M241.332 605.403C220.11 607.871 197.138 607.512 178.429 613.031C162.935 617.637 147.083 623.843 130.871 631.65C129.345 632.398 128.044 632.383 126.967 631.605C125.681 630.708 125.741 629.915 127.147 629.227C163.07 611.67 201.102 603.07 241.242 603.429C251.591 603.519 251.621 604.177 241.332 605.403Z"></path>
<path fill="#FCECDC" d="M377.949 634.926L375.482 638.56C374.734 639.637 374.913 640.534 376.02 641.252C377.934 642.478 378.921 644.243 378.981 646.546C379.011 647.772 379.564 648.655 380.641 649.193C384.739 651.197 388.119 654.472 390.781 659.019C391.589 660.395 391.903 661.86 391.723 663.416L389.973 678.401C389.94 678.657 389.835 678.899 389.671 679.099C389.508 679.3 389.292 679.449 389.051 679.529C388.809 679.61 388.552 679.618 388.31 679.553C388.067 679.489 387.851 679.353 387.685 679.164C387.386 678.835 387.087 678.536 386.788 678.266C386.549 677.997 386.294 677.997 386.025 678.266C354.679 710.361 317.126 719.603 273.366 705.994C260.803 702.076 249.048 699.503 238.101 698.277C236.462 698.104 234.951 697.3 233.884 696.034L219.571 679.119C218.959 678.393 218.654 677.455 218.721 676.502C218.788 675.549 219.221 674.654 219.93 674.004L225.853 668.53C226.365 668.068 226.71 667.45 226.832 666.775C226.954 666.1 226.846 665.407 226.526 664.807L217.149 647.129C216.401 645.753 215.249 645.065 213.694 645.065C187.671 645.155 161.724 645.125 135.851 644.976C134.116 644.976 132.576 643.974 131.23 641.97C130.542 640.923 130.811 640.459 132.037 640.579C170.263 643.749 208.459 643.091 246.626 638.605C248.091 638.425 249.288 637.767 250.215 636.631C257.812 627.298 267.578 624.367 279.513 627.837C280.192 628.019 280.913 627.945 281.535 627.629C282.157 627.314 282.636 626.78 282.878 626.132C284.583 621.735 286.542 618.789 288.755 617.293L294.947 612.672C296.203 611.745 297.594 611.416 299.119 611.685C326.278 616.201 352.555 623.948 377.949 634.926Z"></path>
<path fill="#4E423D" d="M1000.24 633.49C1001.2 632.981 1002.56 634.851 1004.33 639.098L970.857 662.832C970.785 662.87 970.702 662.881 970.622 662.865C970.541 662.849 970.469 662.806 970.417 662.743C970.365 662.681 970.335 662.602 970.334 662.52C970.332 662.438 970.359 662.359 970.409 662.294L1000.24 633.49Z"></path>
<path fill="#C6626B" d="M628.887 724.524C629.844 718.242 627.9 713.277 623.054 709.628C598.796 691.502 571.622 681.901 541.532 680.824C539.857 680.764 538.481 681.048 537.404 681.676C535.58 682.783 534.697 684.054 534.757 685.49C531.048 681.153 528.296 676.098 526.502 670.325C526.083 668.979 526.397 667.857 527.444 666.96C553.96 643.944 611.658 672.793 632.297 692.624C633.373 693.641 634.016 694.882 634.226 696.348C635.841 706.697 634.061 716.089 628.887 724.524Z"></path>
<path fill="#FBA2B7" d="M628.887 724.523C628.977 743.726 620.093 774.415 596.718 774.325C562.26 774.19 544.942 715.416 534.757 685.49C534.698 684.054 535.58 682.783 537.404 681.676C538.481 681.048 539.857 680.764 541.532 680.824C571.622 681.9 598.796 691.502 623.054 709.628C627.9 713.277 629.844 718.242 628.887 724.523Z"></path>
<path fill="#E1DBD1" d="M905.219 694.867C922.537 712.753 940.289 725.81 958.475 734.035C967.897 738.282 982.703 743.262 1002.89 748.975C972.114 799.629 905.039 834.805 849.988 841.4C830.426 843.763 810.88 846.425 791.348 849.386C790.181 849.566 789.867 849.132 790.406 848.085C803.297 822.511 813.302 795.861 820.421 768.133C820.81 766.728 821.603 765.591 822.799 764.724C850.826 744.683 878.299 721.398 905.219 694.867ZM890.368 813.359L919.037 770.018C919.107 769.91 919.131 769.78 919.106 769.654C919.081 769.528 919.008 769.418 918.903 769.345L917.736 768.582C917.396 768.348 916.687 768.678 915.65 769.553C914.613 770.428 913.269 771.831 911.693 773.681C910.118 775.531 908.343 777.793 906.47 780.336C904.597 782.879 902.662 785.655 900.777 788.503L900.238 789.31C898.346 792.168 896.541 795.043 894.927 797.77C893.313 800.497 891.922 803.022 890.833 805.199C889.745 807.376 888.98 809.162 888.585 810.455C888.189 811.747 888.17 812.521 888.528 812.73L889.695 813.493C889.803 813.562 889.933 813.587 890.059 813.562C890.184 813.537 890.295 813.464 890.368 813.359ZM865.781 774.325C857.735 795.143 844.35 811.579 825.626 823.633C825.492 823.72 825.379 823.836 825.295 823.972C825.211 824.108 825.159 824.261 825.142 824.42C825.124 824.579 825.143 824.74 825.195 824.891C825.248 825.042 825.334 825.179 825.446 825.293C825.955 825.802 826.568 825.816 827.286 825.338C845.741 813.403 859.32 797.416 868.024 777.376C868.712 775.761 868.249 774.624 866.634 773.966C866.472 773.906 866.294 773.909 866.136 773.976C865.977 774.043 865.85 774.167 865.781 774.325Z"></path>
<path fill="#BDA194" d="M199.516 731.253C198.499 731.493 198.11 732.211 198.35 733.407C195.568 733.138 193.325 732.465 191.62 731.388C190.304 730.58 190.408 730.042 191.934 729.773C194.117 729.384 196.645 729.878 199.516 731.253Z"></path>
<path fill="#CEC3B9" d="M781.836 772.396C735.803 797.117 683.803 816.141 644.994 834.984C621.214 846.53 605.601 865.583 598.153 892.144C597.734 893.729 596.702 894.507 595.057 894.477L525.066 893.131C523.378 893.093 521.737 892.574 520.337 891.636C518.938 890.697 517.838 889.379 517.17 887.837C506.282 862.293 487.094 844.646 459.606 834.895C453.474 834.506 454.446 832.337 462.522 828.389C464.437 827.462 466.545 826.968 468.849 826.908C495.32 826.131 521.791 825.413 548.262 824.755C604.12 823.409 655.178 801.469 705.384 779.664C705.89 779.451 706.449 779.398 706.987 779.512C707.524 779.627 708.014 779.902 708.39 780.303C708.766 780.703 709.01 781.209 709.091 781.753C709.171 782.296 709.083 782.851 708.838 783.343C707.432 786.065 708.719 787.441 712.697 787.471C725.394 787.561 739.392 776.838 751.102 772.127C760.973 768.134 767.658 760.686 778.067 756.513C780.221 755.646 781.357 756.364 781.477 758.667L781.611 761.404C781.701 763.198 780.924 764.44 779.278 765.128C777.304 765.935 776.557 767.535 777.035 769.928C777.244 771.005 777.902 771.648 779.009 771.857L781.836 772.396Z"></path>
<path fill="#B4AAA6" d="M890.368 813.359C890.295 813.464 890.184 813.537 890.059 813.562C889.933 813.587 889.802 813.563 889.695 813.493L888.528 812.731C888.17 812.521 888.189 811.748 888.585 810.455C888.98 809.162 889.745 807.376 890.833 805.199C891.922 803.022 893.313 800.497 894.927 797.77C896.541 795.043 898.346 792.168 900.238 789.31L900.777 788.503C902.662 785.655 904.597 782.879 906.47 780.336C908.343 777.793 910.118 775.531 911.693 773.681C913.269 771.831 914.613 770.428 915.65 769.553C916.687 768.678 917.396 768.348 917.736 768.582L918.903 769.345C919.008 769.418 919.081 769.529 919.106 769.654C919.131 769.78 919.107 769.91 919.037 770.018L890.368 813.359Z"></path>
<path fill="#BDA194" d="M865.781 774.325C865.85 774.168 865.977 774.043 866.136 773.976C866.294 773.909 866.472 773.906 866.633 773.966C868.248 774.624 868.712 775.761 868.024 777.376C859.32 797.416 845.741 813.404 827.286 825.338C826.568 825.817 825.954 825.802 825.446 825.293C825.334 825.18 825.248 825.042 825.195 824.891C825.142 824.74 825.124 824.58 825.141 824.421C825.158 824.262 825.211 824.109 825.295 823.972C825.378 823.836 825.491 823.72 825.625 823.633C844.35 811.579 857.735 795.143 865.781 774.325Z"></path>
<path fill="#CEC3B9" d="M676.939 907.129L663.658 921.666C663.191 922.176 662.622 922.583 661.989 922.861C661.355 923.139 660.671 923.282 659.979 923.281H648.09C646.534 923.281 645.876 922.518 646.116 920.993C647.641 910.793 651.245 901.416 656.928 892.862C657.856 891.486 657.497 890.738 655.852 890.618C653.294 890.394 650.064 892.099 648.718 894.477C644.231 902.403 640.791 910.539 638.399 918.884C638.094 919.926 637.407 920.815 636.475 921.372C635.544 921.93 634.436 922.115 633.374 921.89C604.121 916.013 600.935 894.522 616.459 872.762C633.329 849.117 652.173 843.15 684.611 830.498C724.901 814.705 762.005 802.68 801.622 778.497C803.177 777.54 803.731 777.944 803.282 779.709C788.611 836.734 759.268 905.29 696.276 920.903C695.409 921.112 695.11 920.798 695.379 919.961L699.821 905.693C699.9 905.49 699.939 905.273 699.934 905.055C699.93 904.837 699.883 904.621 699.795 904.421C699.708 904.221 699.582 904.041 699.425 903.889C699.267 903.738 699.082 903.619 698.878 903.54C698.675 903.46 698.458 903.422 698.24 903.426C698.022 903.43 697.806 903.477 697.606 903.565C697.406 903.652 697.226 903.778 697.074 903.936C696.923 904.093 696.804 904.279 696.725 904.482L689.546 918.884C688.768 920.439 687.542 921.441 685.867 921.89L676.176 924.447C675.898 924.531 675.602 924.533 675.323 924.454C675.043 924.375 674.792 924.218 674.599 924.001C674.406 923.785 674.279 923.517 674.232 923.231C674.186 922.944 674.222 922.65 674.336 922.384L679.765 908.924C679.91 908.555 679.923 908.148 679.8 907.771C679.677 907.394 679.427 907.072 679.093 906.86C678.758 906.647 678.36 906.558 677.967 906.607C677.574 906.656 677.21 906.841 676.939 907.129Z"></path>
<path fill="#FDFAEE" d="M333.891 815.378C326.174 835.657 354.126 834.67 369.65 836.241C395.627 838.888 424.386 838.035 452.114 841.849C453.729 842.058 455.105 842.746 456.242 843.913C459.263 846.874 462.897 848.31 467.144 848.22C468.849 848.16 470.225 848.803 471.272 850.149L479.572 860.872C480.679 862.338 480.993 863.968 480.514 865.763L474.726 886.715C469.402 884.921 467.488 885.01 468.984 886.984C459.831 886.147 454.237 889.452 452.204 896.9C451.875 898.156 451.082 898.994 449.826 899.412C445.399 900.908 441.391 901.237 437.801 900.399C427.961 908.057 429.636 918.466 442.826 931.626L409.177 932.299C404.929 926.915 403.12 921.322 403.748 915.519C404.047 912.857 403.868 910.943 403.21 909.777C402.073 907.772 400.413 906.606 398.229 906.277C397.473 906.15 396.694 906.307 396.041 906.721C395.388 907.134 394.906 907.774 394.685 908.52C392.472 916.058 393.668 924.014 398.274 932.389C347.172 926.736 332.5 856.206 322.63 814.122C322.271 812.476 322.899 811.908 324.514 812.417L333.891 815.378Z"></path>
<path fill="#BDB3B0" d="M317.021 829.78C330.257 881.466 345.063 935.395 403.658 942.664L378.533 949.124C376.858 949.543 375.916 950.605 375.706 952.31C374.121 964.184 378.682 971.408 389.39 973.98C390.916 974.339 392.023 975.207 392.711 976.582C394.984 981.308 398.618 984.838 403.613 987.171C363.951 985.376 81.2039 965.052 91.7475 902.284C92.0167 900.758 92.6747 899.442 93.7216 898.336C135.223 854.232 257.125 840.099 311.458 835.613C313.013 835.493 314.18 834.76 314.957 833.414L317.021 829.78Z"></path>
<path fill="#CEC3B9" d="M874.709 849.207C874.5 849.955 874.47 850.628 874.62 851.226C874.689 851.498 874.815 851.753 874.991 851.972C875.167 852.192 875.387 852.371 875.638 852.499C875.889 852.626 876.164 852.699 876.444 852.711C876.725 852.724 877.006 852.676 877.267 852.572C903.289 842.253 948.918 860.648 973.236 871.954C1078.94 920.993 879.869 960.475 861.294 963.347C857.406 961.103 857.361 958.112 861.16 954.373C862.207 953.356 862.102 952.474 860.846 951.726L858.512 950.335C856.808 949.318 856.314 947.898 857.032 946.073C863.403 929.622 865.003 912.678 861.833 895.24C861.567 893.797 861.676 892.3 862.147 890.888C866.903 876.77 865.616 863.714 858.288 851.719L874.709 849.207Z"></path>
<path fill="#BDB3B0" d="M858.288 851.719C865.616 863.714 866.903 876.77 862.147 890.888C861.676 892.3 861.567 893.797 861.833 895.24C865.003 912.678 863.403 929.622 857.032 946.073C856.314 947.898 856.808 949.318 858.512 950.335L860.846 951.726C862.102 952.474 862.207 953.356 861.16 954.373C857.361 958.112 857.406 961.103 861.294 963.347C800.545 974.055 739.647 981.518 678.599 985.735C679.526 982.774 677.701 979.528 673.125 975.999C671.809 974.952 671.674 973.771 672.721 972.454C679.541 963.87 682.009 953.94 680.124 942.663C680.001 941.975 679.693 941.335 679.234 940.813C678.775 940.291 678.183 939.906 677.522 939.702C672.317 938.117 671.854 935.978 676.131 933.286C732.528 930.729 758.685 902.463 785.739 858.988C786.122 858.386 786.649 857.893 787.27 857.555C787.891 857.217 788.584 857.046 789.284 857.058C812.285 857.657 835.287 855.877 858.288 851.719Z"></path>
<path fill="#FCECDC" d="M468.983 886.984C475.773 897.663 480.02 909.223 481.725 921.666C481.935 923.102 481.321 923.939 479.886 924.178L447.896 929.338L437.801 900.399C441.391 901.237 445.399 900.908 449.825 899.412C451.082 898.994 451.874 898.156 452.203 896.9C454.237 889.452 459.831 886.147 468.983 886.984Z"></path>
<path fill="#B4AAA6" d="M676.131 933.286C671.854 935.978 672.317 938.117 677.522 939.702C678.183 939.907 678.775 940.291 679.234 940.813C679.693 941.335 680.001 941.975 680.124 942.663C682.009 953.94 679.541 963.87 672.721 972.455C671.674 973.771 671.809 974.952 673.125 975.999C677.701 979.529 679.526 982.774 678.599 985.735C586.713 991.179 495.051 991.657 403.613 987.171C398.618 984.838 394.984 981.308 392.711 976.582C392.023 975.206 390.916 974.339 389.391 973.98C378.683 971.408 374.121 964.184 375.706 952.31C375.916 950.605 376.858 949.543 378.533 949.124L403.658 942.663C435.962 943.95 465.454 940.435 492.134 932.12C505.744 927.872 514.657 918.077 518.875 902.732C519.144 901.686 519.817 901.192 520.894 901.252L597.436 905.11C597.792 905.136 598.132 905.265 598.412 905.481C598.692 905.697 598.899 905.989 599.006 906.322C608.966 935.664 650.378 934.184 676.131 933.286Z"></path>
<path fill="#715337" d="M437.801 900.399L447.896 929.338C448.434 930.385 446.744 931.148 442.826 931.626C429.635 918.466 427.96 908.057 437.801 900.399Z"></path>
<path fill="#715337" d="M409.176 932.299L398.274 932.389C393.668 924.014 392.471 916.058 394.685 908.52C394.905 907.774 395.388 907.134 396.041 906.721C396.694 906.307 397.472 906.149 398.229 906.277C400.412 906.606 402.073 907.772 403.209 909.776C403.867 910.943 404.047 912.857 403.748 915.519C403.119 921.322 404.929 926.915 409.176 932.299Z"></path>
</g>
<defs>
<clipPath id="clip0_2_4609">
<rect fill="white" height="1024" width="1024"></rect>
</clipPath>
</defs>
</svg>
